<svg version="1.1" id="Layer_1" xmlns="http://www.w3.org/2000/svg" xmlns:xlink="http://www.w3.org/1999/xlink" x="0px" y="0px"
	 viewBox="0 0 2043.3 3005" style="enable-background:new 0 0 2043.3 3005;" xml:space="preserve"
	>
<style type="text/css">
	.st0{fill:#FFFF73;}
</style>
<g>
	<path class="st0" d="M757.2,2736.8c0.5-0.7,0.8-1.4,1.2-2.2C756.3,2738,755.6,2739.2,757.2,2736.8z"/>
	<path class="st0" d="M2646.1,2110.9c0,0,4.1-49-126.5-133.1s-390-86.4-483.4-81.7c-93.4,4.7-194.7,68.5-229.1,91.7
		c-34.4,23.2-94.5,52.2-106.5,56.1c-12,3.9,6.9-36.7,30.9-67.7c24.1-30.9,42.9-71.5,46.4-206.8s-36.1-69.6-36.1-117.9
		s24.7-48.7,41-71.7c16.4-23,45-61.7,54-62.6c9-0.9,21.3,2.8,20.4-5.5c-0.8-8.3-15.5,1.8-15.5-9.2c0-11,40.9-61.3,39.1-142.1
		c-1.8-80.9-19.8-119.3-19.8-151.6c0-32.3,16.2-32.3,19.8,12.1c3.6,44.5,41.3,60.6,26.9-4c-14.4-64.7-91.6-230.4-120.4-266.8
		c-28.7-36.4,24.3,64.3,24.3,64.3s-6.7,9.7,0,29c6.7,19.3,1,5.4,1,5.4s-39.1-61.2-41-68.7c-1.9-7.5-34.3-133.1-24.8-185.7
		c9.5-52.6,17.2-106.3,42-106.3c24.8,0,39.6,62.3,61.8,105.2c22.2,42.9,66.1,155.7,66.1,155.7s10.5,30.1,9.5,5.4
		c-1-24.7-23.9-56.9-33.4-85.9c-9.5-29-44.8-74.1-26.7-111.7c18.1-37.6,28.6-12.9,28.6-27.9c0-15-24.6-24.7-34.3-68.7
		c-1.3-5.7-2.7-11.5-4.3-17.4c-10.6-39.6-26.8-80.3-30.1-80.3c-3.8,0-19.1-1.1-14.3,8.6c4.8,9.7,14.3,33.3,19.1,49.4
		s10.7,6.4,15.3,25.8c4.5,19.3-1,41.9-19.1,32.2c-18.1-9.7-43.9-77.3-43.9-97.7c0-20.4,77.3-46.2,101.1-53.7
		c23.9-7.5,149.9-82,285.1-27.1c135.2,54.9-19.9-52.5-19.9-52.5s-25.3,18.5-62.6,18.5c-37.3,0-175.3,10.1-205.8,26.8
		s-67.1,48.7-93.9,48.7c-26.8,0-37.3-33.6-52.2-94c-14.9-60.4-59.6-223.2-59.6-223.2l-38.8-8.4c0,0,104.4,364.1,120.8,394.3
		c16.4,30.2,37.3,43.6,20.9,62.1c-16.4,18.5-38.7,35.3-38.7,69.7c0,34.4-9.3,82.1-4.2,111.7c5.1,29.6,20.4,67.8,18.7,86.9
		c-1.7,19.1-3.4,27.7-24.6,10.5c-21.2-17.2-146.8-79.2-165.4-127c-18.7-47.7-49.2-55.4-53.4-168c-4.2-112.6-19.5-127-26.3-214.8
		c-6.8-87.8-17-297.7-17-297.7h-16.1c0,0,18.7,127.8,12.7,159.3c-5.9,31.5-19.5,51.5-8.5,99.3c11,47.7,21.2,47.7,17.8,70.6
		c-3.4,22.9-32.2,1.1-66.2-8.6s-97.6-52.5-133.2-2.9c-35.6,49.6-51.7,85-51.7,110.7s5.9,52.5,0,84c-5.9,31.5-11.9,45.8-24.6,48.7
		c-12.7,2.9-56,3.8-95-10.5c-39-14.3-93.3-24.8-114.5-28.6c-21.2-3.8-16.1-17.2-68.7-23.9c-52.6-6.7-103.5-30.5-103.5-30.5
		s25.4-22.9,50.1-35.3c24.6-12.4,55.1-34.4,61.9-47.7c6.8-13.4,47.5-48.5,83.1-61.1c35.6-12.6,14.4,9.5,35.6,34.4
		c21.2,24.8,41.6,59.2,54.3,74.5s17,29.6,41.6,29.6s33.9-19.1,48.4-24.8c14.4-5.7,29.3-8.8,29.3-8.8v-4.1c0,0-38.1,7.8-46.4,17.6
		c-8.3,9.8-40.9,21.2-56,2.1c-15.2-19.1-54.2-67.7-62.5-82.2c-8.3-14.5-15.6-22.2-16.5-39.3c-0.9-17.1-2.8-33.7-31.7-11.4
		c-28.9,22.3-60.6,37.3-74.4,54.8c-13.8,17.6-12.9,24.3-51.9,49.6c-39,25.3-65.2,44.5-72.6,44.5c-7.3,0-48.2-32-42.3-65.1
		c6-33.1,20.2-89.4,42.3-91.5c22-2.1,27.6-8.3,59.3,15c31.7,23.3,62.5,41.3,62.5,41.3l2.3,1.6c0,0-35.5-37.7-43.6-35.7
		c-8.1,2.1-31.2-23.8-46.9-31c-15.6-7.2-19.3,1-40-5.2c-20.7-6.2-1.9-91.7,35.8-144.5C875.1,235.4,1008,102,1008,102
		s-155,33.7-155,52.8s-18.2,45.4-58.6,140.7S747.4,401,746.1,418.6c-1.3,17.6-30,8.3-52.1,35.7c-22.1,27.4-27,18.2-43.8,65
		c-15,41.6-22.9,31.3-35.6,24.5c7.3-7.6,14.3-15.5,20.4-25c24.8-38.8,52.8-57.4,75.4-130.3c22.6-72.9-11.8-113.9-25.6-125.3
		c-13.8-11.4-10.4-14.3-54.5-96.1c-44.1-81.8-138.6-100-163.6-108.3c-25-8.3-101.8-39.8-158.6-36.4c-56.8,3.4-98.8,22-128.9,40.4
		c-30.2,18.5-68.2,82.5-68.2,82.5c-34.7,40.6-33.9,90.5-42.4,126.4c-8.5,35.9-29,33.7-44.6,135.4c-11.3,73.7,43.2,148,43.2,148
		c54.5,95.7,149.5,140.3,217.3,159.3c-3.2,16.4-4.1,39.5,0.1,74.6c7.9,65.8,4.1,124.9-2.9,184c-7,59.1-16.9,118.2,17.7,171.7
		c34.7,53.5,21.8,54.6,21.8,54.6s-49.5,16.7-65.4,39c-15.9,22.3-36.7,26.8-18.8,118.2c17.8,91.4,9.9,133.8,9.9,133.8
		s-18.8-4.5-28.7,3.3c-9.9,7.8-21.8,7.8-21.8,37.9c0,30.1,5.9,65.8,5.9,85.8c0,20.1,4,66.9,7.9,70.2c4,3.3-12.9,29-48.5,13.4
		c-35.7-15.6-66.4,6.7-66.4,6.7s52.5,4.5,68.4,4.5c15.9,0,37.6-2.2,50.5-10c12.9-7.8,24.8,5.6,31.7,10c6.9,4.5,5.9,16.7-4,45.7
		c-9.9,29-16.8,51.3-6.9,76.9c9.9,25.6,0,87,57.5,146c57.5,59.1,11.9,54.6,73.3,82.5c61.4,27.9,77.3,41.2,95.1,66.9
		c17.8,25.6,62.4,121.5,77.3,139.4c14.9,17.8,20.8,21.2,13.9,27.9c-6.9,6.7-62.4,46.8-103,55.7c-40.6,8.9-44.6,39-44.6,39
		s58.5-36.8,86.2-47.9c27.7-11.2,49.5-37.9,65.4-32.3c15.9,5.6,41.6,68,53.5,78c11.9,10,11.9,33.4,5,43.5c-6.9,10-6.9,46.8,14.9,68
		c21.8,21.2,104,114.8,120.9,126c16.8,11.1-26.8,70.2-26.8,70.2s35.7-47.9,39.6-53.5c4-5.6,26.8,23.7,26.8,23.7s-7.9,26.4-22.8,29.8
		c-14,3.2-3.4,24.2-8.8,36.8c8.2-13.7,38.9-62.9,40.5-60.2c2,3.3,107,65.7,120.9,80.2c13.9,14.6,46.6,37.3,66.4,49.9
		c19.8,12.6,13.9,28.2,13.9,28.2s5-6.7,30.7,0c25.8,6.7,158.5,43.5,216,64.7c57.5,21.2,84.2,21.2,112.9,21.2
		c28.7,0,60.4-7.8,118.9,7.8c58.5,15.6,63.4-2.2,65.4,12.3c2,14.5,8.9,37.9,14.9,53.5c5.9,15.6,18.7,23.4,31.1-14.5
		c3.8-11.6,5.7-18.3,6.5-22c6.3,4.3,27.4,16.8,55.5,13.1c33.7-4.5,67.4-10,79.3-7.8c11.9,2.2,41.6,32.3,65.4,22.3
		c23.8-10,11.1-14.5,54.1-25.6s156.9-40.1,156.9-40.1l-2-10.4c0,0-118.7,22.7-155,28.2c-36.3,5.6-108.6,16.7-168,13.4
		c-59.4-3.3-120.9-13.4-129.8-23.4c-8.9-10-29.7-89.2-31.7-115.9c0,0,56.3-76.9,68.8-113.7c12.5-36.8,9.8-43.9,23.1-45.8
		c55.4-7.9,142-37,168-38.4c25.9-1.4,53.1-19.5,54.3,0c1.2,19.5,9.7,29.2,15.4,26.4c5.6-2.8,41.4-54.5,15.5-56.4
		c-25.9-1.9-38.3-14.4-49.4-13c-11.1,1.4-18.5,13.7-18.5-0.1c0-13.8-8.8-16.5-15.8-25.4c-7-8.9-1.4-6.8,2.3-12.6
		c3.7-5.8,1.9-31.2-4.2-37.9c-6-6.6-14-11.3-14-11.3s37.7-2.6,48.4-4.7c10.7-2.1,19.5-4.7,40.9-4.7c21.4,0,293.3-23.3,316.5-24.5
		c23.2-1.2,52.7-5.2,48.5,33c-4.2,38.2,0.4,68,0.4,68s16.2-89.4,0-101.7s-98.5-4.3-175.4,0c-77,4.3-122.3,17.3-147.6,7.8
		c-25.3-9.5-69.6-30.8-66.4-94.9c3.2-64.1,7.4-134.1-65.4-117.4c-72.7,16.6-55.9,86.6-47.4,126.9c8.4,40.3,14.8,50.7,5.3,75.8
		c-9.5,25-22.1,27.4-25.3,7.2c-3.2-20.2-1.1-40.3-17.9-84.2s-45.3-83-60.1-102s-41.4-53.4-31.2-80.7c10.1-27.3,40.7-64.1,53.4-73.6
		c12.7-9.5,38-34.4,38-47.5c0,0,54.8-14.2,69.6-20.2c14.8-5.9,55.9-45.1,59-29.7s-2.1,17.8,25.3,13.1c27.4-4.7,26.4-21.4,10.5-16.6
		c-15.8,4.8-52.7-8.3-29.5-15.4c23.2-7.1,182.7-77.9,253.2-84.9c70.5-7,373.4,2.3,508.3,149.4
		C2712.5,2206.6,2646.1,2110.9,2646.1,2110.9z M1827.6,1132.7c9.3,21.9,24.1,92.8,31.5,121c7.4,28.2,21.5,120,6.5,145
		c-15,25-4.6-1-28.7,56.3c-24.1,57.4-48.2,108.5-84.4,131.5c-36.2,23-52.8,14.4-92.7,34.4c-39.9,20.1-79.7,5.2-104.8-10.4
		c-25-15.7-48.2-25-52.8-30.3c-4.6-5.2-29.7-67.8-8.3-93.9c0,0,38.9-29.2,47.3-46.9c8.3-17.7,31.5-61.6,37.1-68.9
		c5.6-7.3,41.7-9.4,66.8-11.5c25-2.1,30.6-6.3,40.8,0c10.2,6.3,38.9,15.3,29.7-3.3c-9.3-18.6-15.8-14.4-21.3-10.3
		c-5.6,4.2-24.1,4.3-32.4-3.6c-8.3-7.9-38-21.5-33.4-52.8c0,0,38.9-36.5,46.4-49c7.4-12.5,41.7-53.2,61.2-74.1
		c19.5-20.9,30.6-33.4,55.6-33.4S1818.4,1110.8,1827.6,1132.7z M1485.4,1568.7c-14.3-9.8-87.8-15.2-104-15.5
		c-1.1,0.3-1.9,0.4-2.5,0.3c-1.5-0.3-0.4-0.4,2.5-0.3c17.4-4.6,97.7-57.5,97.7-57.5C1466,1515.1,1485.4,1568.7,1485.4,1568.7z
		 M1419.7,1523.9c-21.3,9.4-65.8,20.9-65.8,20.9c-23.3,6.5-53.8,8.7-53.8,8.7s27.8-23.3,27.8-37.9c0-14.6,29.7-31.3,60.3-51.1
		c30.6-19.8,51.9-32.3,61.2-48c9.3-15.7,42.6-26.1,64-34.4c21.3-8.3,48.2-12.5,42.6-5.2c-5.6,7.3-46.4,71-51.9,85.6
		C1498.5,1477,1441,1514.5,1419.7,1523.9z M1039.2,1506.4c-27.6-2.1-33.9-20.7-65.6-43.2c-31.7-22.4-53-20.5-69.3-47.4
		c-16.3-27-46.9-70.3-28.6-68.3c18.3,1.9,26.9-38.5,44,10.6c17.1,49.1,24,65.5,33.4,72.2s-1.7-17.3-7.7-40.4
		c-6-23.1,7.7-12.5,16.3,1.9c8.6,14.4,15.4,15.4,18.8,30.8c3.4,15.4-6.8-38.5-20.5-59.7c-13.7-21.2-13.7,10.6-13.7-21.2
		s-18-15.2-28.2-24.9c-10.3-9.7-6-33.3-27.4-53.8c-21.4-20.5-13.7-34.9-31.7-20.5c-18,14.4-46.2,17.4-9.4,48.7
		c36.8,31.2,48.9,32.2,26.2,42.8c-22.7,10.6-80.3-58.7-44.7-86.6v-4.7c2.9-3.8,13.1-18.6,33.4-18.6c20.3,0,37.8,8.2,53.8-6.5
		c16-14.7,8.5-22.2,22.3-27c13.8-4.8,3.8,18.1,18.2,26.1c14.4,7.9,43.5,19.2,62.9,15c19.4-4.2,36.7-23.3,51.3-26.8
		c14.6-3.5,15.2-24.7,24.6-29c9.4-4.2,52.7-53.7,60.3-75.6c7.5-21.9-0.9-33.2,7.1-45.2c8-12,31.8-69.2,36.8-73.5
		c5-4.2,6.7-2.1,15.6,0c8.9,2.1,31.5-0.7,39,13.4c7.5,14.1,25.7,10.6,35.2,14.1c9.4,3.5,20.7,11,34.5,17.2
		c13.8,6.2,47,30.9,67.8,18.9c20.8-12,19.5-4.8,19.5-4.8s-66.6,48.6-69.7,58.5c-3.1,9.9-22,27.9-25.7,33.7
		c-3.8,5.9,7.5,23.5,0.6,34.8c-6.9,11.3-35.8,65-43.3,79.1c-7.5,14.1-17,45.2-17,64.3c0,19.1-6.3,44.8-15.7,62.3
		c-9.4,17.5-17.6,27.4-18.8,44.3c-1.3,17-55.3,95.4-67.2,107.4s-5.3,10.6-34.3,14.1c-29.1,3.5-69.3,14.3-69.3,3.2
		C1053,1531.1,1066.8,1508.5,1039.2,1506.4z M1118.8,1786.7c6.3,10.8-10.7,15.5-20,19.2c-9.2,3.7-33.8-14.1-52.2-19.2
		c-18.4-5.2-23-29.4-20-88.1c3.1-58.7,13.8-34.5,18.4-32.8C1049.7,1667.5,1118.8,1786.7,1118.8,1786.7z M1036.7,1009.9
		c12.4,24.7,21,24.7,21,37.4c0,0-7.6,23.8-11.4,41c-3.8,17.2-27.7,45.1-38.2,49.4c-10.5,4.3-49.6,19.3-49.6,19.3s8.6-19.3,9.5-55.8
		c1-36.5,17.2-91.2,17.2-132c0-40.8,15.3-63.3,28.6-64.5c13.3-1.1,1,36.6,0.1,50.5C1012.8,969.1,1024.3,985.2,1036.7,1009.9z
		 M1081.5,1014.4c-7.6-0.2-7.6-0.8-4.8-35.4c2.9-34.6,6.7-41.2,15.3-53.5c8.6-12.2,3.5-30.4,9.4-45.5c5.9-15.1,2.2-41.9,20.2-36.5
		c18.1,5.4,32.3,15,28.5,55.8c-3.8,40.8-43.2,78.3-48.8,105.2c-5.6,26.8-15.1,43.3-9.4,9.9c5.7-33.5,14.3-76.4,14.3-76.4
		L1081.5,1014.4z M1101.4,838.3c0.9,8.3-8.4,44.2-14.3,66.3c-5.9,22.2-20.4,31.7-20.4,67c0,35.3,4.2,52.5-1.7,54.4
		c-5.9,1.9-29.7-35.3-31.4-51.5c-1.7-16.2-11-32.9-11.9-69.9c-0.8-37,10.2-67.5,11.9-84.7c1.7-17.2,5.1-70.6,13.6-77.3
		c7.5-5.9,23.7,16.2,36.5,28.6c12.7,12.4,28,33.4,33.1,41S1100.4,830,1101.4,838.3z M977.5,1163.4c21-3.2,35.8-28.6,49.8-30.9
		c14.1-2.3,15-2.6,30.3-37.3c15.3-34.8,2-46.1,21-47.8c0,0,58.7-8.4,38.9,10.9c-19.8,19.3-17,12.9-38.9,52.6
		c-21.9,39.7-35.3,52.6-35.3,71.9c0,19.3-1.4,18.2-16,25.8c-14.5,7.5-20.3,5.4-34.6,5.4c-14.3,0-34.3-5.9-34.3-23.3
		C958.5,1173.1,956.6,1166.6,977.5,1163.4z M1224.1,1439.9c14.2-36.7,1.4-26.4,24.8-66.9c23.4-40.5,17.7-66.5,25.6-108
		c7.8-41.5,51.8-76.7,58.2-122.2c6.4-45.5,46.1-66.3,73.8-90.2c27.7-24,6.4-8,51.1,5.6c44.7,13.6,65.3,64.8,65.3,64.8
		s4.3,182.8,3.5,217.1c-0.7,34.3-19.2,35.9-37.6,36.7c-18.5,0.8-63.9,42.4-72.4,52c-8.5,9.6-79.9,61.5-79.9,61.5s-13.8,1.6-26.6,7.2
		c-12.8,5.6-80.2,29.6-88,33.5c-7.8,4-71.8,11.2-71.8,11.2S1209.9,1476.7,1224.1,1439.9z M1643.1,1349.7c-0.9,5.2-56.6,7.3-56.6,7.3
		l28.3-54.2C1611.6,1317.4,1644.1,1344.5,1643.1,1349.7z M1566.2,1352.8c0,0-14.9-3.9-24.9-4.7c-9.9-0.8-11.4-215.6-11.4-215.6
		s12.8,18.4,26.8,20.8c14,2.4,52,3.2,61.4,10.4c9.3,7.2,33.2,20,45.3,20.8c12.1,0.8,31.7-1.6,34.4,6.1c2.8,7.7-16.7,23.6-33.4,44.4
		c-16.7,20.9-31.5,24-49.6,49C1596.8,1309,1566.2,1352.8,1566.2,1352.8z M1585,880.1l54.3,37.2c0,0-6.8,12.4-14.4,19.1
		c-7.6,6.7-37.3,23.9-48.3-4.8C1565.5,903,1585,880.1,1585,880.1z M1548.6,839.5l24.1,30.3c0,0-40.8,57.4,8.3,82.4
		c49.1,25,68.6-30.3,68.6-30.3s89.9,68.9,102.9,70.9c13,2.1,51,74.1,53.8,93.9c2.8,19.8,3.7,39.6-17.6,30.3
		c-21.3-9.4-41.7-43.8-42.6-68.9c-0.9-25-3.7-47.7-17.6-33.8c-13.9,14,2.8,34.8,13.9,58.8c11.1,24,24.1,48.3,27.8,49.7
		c8.9,3.3-46.3,31-57.5,56.7c-11.2,25.7-3.7-2.1-18.5-4.2c-14.8-2.1-36.2,11.5-58.4-12.5c-22.3-24-56-10.4-79-19.8
		c-23-9.4-39.7-49-60.1-68.9c-20.4-19.8-68.2-38.6-68.2-38.6s62.7-25,67.3-49c4.6-24-2.8-101.2,29.7-128.3
		C1557.8,831.2,1548.6,839.5,1548.6,839.5z M1540.9,834.3c0,0-33.1,7.6-36.5,33.4c-3.4,25.8-13.4,84-19,104
		c-5.6,20-12.4,28.1-33.6,42.7c-21.2,14.6-58,30.8-83.7,21.2c-25.7-9.5-42.7-22-53.7-28.6c-11-6.7-44.1-26.7-48.3-24.8
		c-4.2,1.9-3.4,4.8-11,3.8c-7.6-1-40.7-6.7-37.3-18.1c3.4-11.5,24.3-41,33.4-84c9-43,9.9-57.9,18.4-72.4c8.5-14.5,37.3-56.5,56-69.9
		c0,0,29.7,7.7,61.9,21c32.2,13.4,43.3,9.5,68.7,23.9c25.4,14.3,47.5,45.7,61.9,41.9C1532.4,824.7,1540.9,834.3,1540.9,834.3z
		 M1228.7,628.2c0-26.7,4.2-34.4,4.2-64.9c0-30.5,35.6-77.3,53.4-105c17.8-27.7,48.3-3.9,78-3.9s54.3,29.7,75.5,33.5
		s40.7,16.2,40.7,41c0,24.8,11,127.9,11,162.3c0,34.4,1.3,68.2,42.4,120.4c2.8,3.6,5.1,4.6-7.6,4.6s-36.5-28.6-59.4-36.3
		c-22.9-7.6-31.4-22.9-65.3-22.9c-33.9,0-89.1-36.2-109.4-41c-20.4-4.8-65.3-5.7-74.9-14.3C1207.9,693,1228.7,654.8,1228.7,628.2z
		 M1199.9,733.1c12.3-6,22.9-12.4,33.9-10.5c11,1.9,4.2,25.7,12.7,19.1c8.5-6.6,24.6-21,38.2-15.2c13.6,5.7,39.9,1.9,32.2,10.5
		c-7.6,8.6-42.4,43.9-46.7,56.3c-4.2,12.4-11.9-10.5-23.7-4.8c-11.9,5.7-55.1,34.4-59.4,18.1
		C1182.9,790.4,1179.1,743.3,1199.9,733.1z M1086.2,700.6c22.9,1.9,48.1,22,63.9,22s22.6-1.9,29.4,12.4s-11.9,25.8-7.6,44.9
		s-7.6,20-15.3,39.1c-7.6,19.1-5.9,6.7-27.1-13.4c-21.2-20-33.9-41-49.2-58.2c-15.3-17.2-50.9-56.3-58.5-62
		C1021.8,685.4,1063.3,698.7,1086.2,700.6z M1014.5,710.9c28,23.6,1.7,39.4,0,49.2c-1.7,9.8-28,80.7-22.7,78.3
		c5.2-2.4,12.2,26.1,8.7,43.8c-3.5,17.7-28,59-29.7,101.1c-1.7,42-24.5,152.8-24.5,174.5c0,21.6-15.7,19.7-68.2,32.8
		c-52.5,13.2-80.5-13.2-95.4-32.8c0,0,2.7-7.9,0-25.2c-2.7-17.3-13-98.8-14.8-149.3c-1.7-50.5-24.5-67.6-24.5-120.8
		c0-53.1-19.2-120.1-19.2-153.5s42-9.8,82.3-19.7c40.3-9.8,55.9-25.6,98.6-31.5C947.7,651.8,986.6,687.3,1014.5,710.9z
		 M587.6,1095.8c-6.1-65.6,15.4-124.4,15.4-110.6c0,13.8,33.8,20.7,70.6,44.9c36.8,24.2,79.8,27.6,78.3,63.9
		c-1.5,36.3,15.4,88.1,27.6,148.6c12.3,60.5-13.8,69.1-29.2,91.5c-15.4,22.5-65.6,57.8-93.6,69.1c-21,8.5-18.4-13.8-35.3-50.4
		c-16.9-36.6-13.8-72.2-9.2-124C616.8,1177,593.8,1161.4,587.6,1095.8z M657.7,856.5C680.5,815.2,705,762,705,762
		c0,23.6,10.5,110.2,31.5,185c21,74.8,7.9,80,0,93.2c-9.7,16.2-21-0.7-38.5,0c-17.5,0.7-38.5-38.1-59.5-46
		c-21-7.9-22.7-15.7-26.2-29.5C608.8,951,635,897.9,657.7,856.5z M767.3,642.5c7.6,9.5,6.2,9.2,15.4-3.1
		c9.2-12.2,4.4-15.1,23.7-13.2c19.4,1.9,58.4,16.3,72.8,16.3c14.4,0,19.5,6.7,19.5,6.7s-40.7-1-61.9,13.3
		c-21.2,14.3-34.8,19.1-49.2,9.5c-14.4-9.5-18.7-15.5-28-14.9c-9.3,0.6-23.4-2.2-16-14.6C747.5,636.1,759.7,632.9,767.3,642.5z
		 M660.3,524.1c9.4-34.1,9.9-32.6,43.3-63.5c33.4-30.9,42-23.2,39.7-13.7c-2.3,9.4,4.6,20.6-10.7,27.4c-15.2,6.9-7.6,30.9-13.7,68.6
		c-6.1,37.7-16.8,20.6-43.4,18.9c-26.7-1.7-25.9-2.6-28.2-10.3C647.3,551.5,650.9,558.2,660.3,524.1z M644.3,573
		c13-11.2,50.3,7.7,66.3,8.6c0,0-1.5,60.9-7,60.9c-5.4,0-10.6-8.6-19.7-19.7c-9.1-11.2-58.7-22.3-64-24.9
		C614.5,595.3,631.3,584.1,644.3,573z M632.1,569.5c-6.1,5.2-13.6,23.2-20.1,23.2c-4.5,0-27.7,5.3-42.8,6.9
		c9.1-18,20.5-30.6,32-42.2C617.9,560.2,637,565.3,632.1,569.5z M533.2,545.8c-0.8-2.2-2.3-4.3-3.9-6.3c-1.7-2-3.6-4-5.3-6
		c-1.8-2-3.6-3.9-5.5-5.9c-3.7-3.8-7.6-7.5-12-10.4c-2.2-1.4-4.5-2.7-7.1-3.5c-0.5-0.2-1.1-0.3-1.6-0.5c-2.2,0.4-4.4,0.7-6.5,1.1
		c-1.7,0.3-3.3,0.5-5,0.8c-0.8,0.1-1.7,0.2-2.6,0.3c-0.9,0.1-1.9,0.1-2.7,0c-3.4-0.2-6.9-0.6-10.3-1.4c-1.7-0.4-3.3-0.9-5-1.3
		c-1.6-0.6-3.3-1.1-4.9-1.7L456,509l-4.6-2.4c-0.8-0.4-1.5-0.8-2.2-1.3l-2.2-1.4l-2.2-1.4l-2-1.6c-1.4-1-2.7-2.1-4.1-3.1l-3.8-3.4
		l-1.9-1.7c-0.6-0.6-1.2-1.2-1.8-1.8l-3.5-3.7l-0.9-0.9l-0.8-1l-1.6-2l-3.2-3.9c-2-2.7-3.9-5.5-5.9-8.3c-0.2-0.3-0.5-0.7-0.7-1
		l-0.7-1.1l-1.3-2.2l-2.6-4.4l-1.3-2.2l-1.2-2.3l-0.9-1.8c-7.6,1-15.2,2.5-22.7,4.5c-11.1,2.9-22,6.9-32.5,11.8
		c-10.5,4.9-20.6,10.8-30.2,17.4c-4.8,3.3-9.5,6.9-14,10.6c-2.3,1.9-4.5,3.8-6.7,5.8c-2.2,2-4.3,4-6.4,6.2c3.2-5,7-9.6,11.1-14.1
		c4-4.4,8.3-8.6,12.8-12.6c9-7.9,19-14.8,29.6-20.7c5.3-2.9,10.7-5.6,16.4-7.9c1.4-0.6,2.8-1.2,4.2-1.7c1.4-0.5,2.8-1.1,4.3-1.6
		c2.9-1,5.7-2,8.7-2.8c1.5-0.4,2.9-0.9,4.4-1.3l4.4-1.1c0.7-0.2,1.5-0.4,2.2-0.5l2.2-0.5l4.5-0.9c0.9-0.2,1.7-0.3,2.6-0.4l-1-1.9
		l-2.2-4.4l-1.1-2.2c-0.4-0.7-0.8-1.4-1.2-2.1l-5.1-8.5l-5.6-8.2c-0.9-1.4-1.9-2.7-2.9-4l-3-4c-8.1-10.4-17.2-20.1-27.1-29l-1.8-1.7
		l-1.9-1.6l-3.8-3.2c-1.3-1.1-2.6-2.1-3.9-3.1c-1.3-1-2.6-2.1-4-3c-1.3-1-2.7-2-4-2.9l-4.1-2.8c-2.8-1.8-5.6-3.7-8.5-5.3
		c6,2.8,11.8,6.2,17.4,9.9c1.4,0.9,2.8,1.8,4.2,2.8c1.4,1,2.8,1.9,4.1,2.9l4,3l2,1.5l1.9,1.6c10.4,8.5,20,18,28.5,28.4l3.2,3.9
		c1.1,1.3,2.1,2.6,3.1,4l5.8,8.3l5.3,8.6c0.4,0.7,0.9,1.4,1.3,2.2l1.2,2.2l2.4,4.5l1.7,3.2c0.6-0.1,1.1-0.2,1.7-0.2
		c3-0.3,6-0.8,9.1-0.9c7.7-0.5,15.4-0.6,23.1-0.1c-1.9-15.3-1.8-30.7-4.7-45.5c-0.9-4.6-2.1-9-3.6-13.4c-0.2-0.6-0.4-1.1-0.6-1.7
		c-0.3,0.6-0.6,1.1-1,1.6c-1.1,1.4-2.4,2.6-3.9,3.6c-2.9,2-6.1,3.4-9.3,4.5c-3.2,1.1-6.6,1.8-9.9,2.2c-3.3,0.4-6.7,0.6-10.1,0.3
		c3.2-1.2,6.3-2.2,9.5-3.2c3.1-1,6.3-1.9,9.3-2.9c3.1-1,6.1-2.1,9-3.4c1.4-0.7,2.8-1.4,4-2.4c0.7-0.5,1.3-1,1.8-1.7
		c-1.2-3.3-2.6-6.6-4.1-9.9c-3.8-8.5-8.4-16.7-13.3-24.8c-1.2-2-2.5-3.9-3.8-5.9c-0.6-1-1.3-1.9-2-2.9l-2.1-2.8
		c-0.7-1-1.4-1.8-2.2-2.7l-2.2-2.7c-0.8-0.9-1.6-1.7-2.4-2.6c-0.8-0.9-1.6-1.7-2.5-2.5l-2.6-2.4l-2.7-2.2l-0.7-0.5l-0.7-0.5l-1.4-1
		c-0.9-0.7-2-1.2-3-1.8c-2-1.1-4.2-2-6.4-2.7c-2.2-0.7-4.6-1.1-6.9-0.9c2.3-0.4,4.8-0.1,7.1,0.4c2.3,0.6,4.6,1.3,6.8,2.4
		c1.1,0.5,2.2,1,3.2,1.7l1.5,0.9l0.8,0.5l0.7,0.5l2.9,2.1l2.8,2.3c0.9,0.7,1.8,1.6,2.6,2.4c0.9,0.8,1.7,1.7,2.6,2.5l2.4,2.7
		c0.8,0.9,1.6,1.8,2.3,2.7l2.2,2.8c0.7,0.9,1.5,1.9,2.1,2.9c1.3,2,2.7,3.9,4,5.9c5.2,7.9,10,16.2,14,24.8c1,2.2,2,4.3,2.9,6.6
		c0.9,2.2,1.7,4.5,2.5,6.7c1.5,4.5,2.8,9.2,3.8,13.9c1.8,9.5,2.4,19,3,28.4c0.3,6.1,0.7,12.1,1.3,18.1c3.3,0.3,6.7,0.7,10,1.2
		c3,0.5,6,1,9,1.7c3,0.6,5.9,1.4,8.9,2.2c5.9,1.7,11.6,3.7,17.2,6.1c11.2,4.9,21.7,11.1,31,18.8c2.7,2.3,5.4,4.6,7.9,7.1
		c-0.1,1.2-0.8,1.9-2.4,1.9c-0.5,0-1,0-1.5,0c-2.3-1.7-4.6-3.3-7-4.8c-9.8-6.3-20.2-11.4-31-15.3l-4.1-1.4c-1.4-0.5-2.8-0.8-4.1-1.2
		l-2.1-0.6l-2.1-0.5c-1.4-0.3-2.8-0.7-4.2-1c-2.8-0.6-5.6-1.2-8.4-1.7c-2.8-0.6-5.7-0.9-8.5-1.3c-1.4-0.2-2.9-0.3-4.3-0.4
		c-1-0.1-2-0.2-3-0.3c0.8,4.5,1.8,8.9,3.2,13.2c1.4,4.4,3.2,8.7,5.5,12.8c4.5,8.1,11.4,14.9,19.7,19.4c-8.7-3.7-16.2-10.3-21.3-18.5
		c-2.6-4-4.6-8.4-6.3-12.9c-1.7-4.5-2.9-9.2-3.8-13.8c0-0.1,0-0.2-0.1-0.3c-2.3-0.1-4.6-0.3-6.8-0.3l-4.3-0.1
		c-1.4,0-2.9,0.1-4.3,0.1c-1.4,0.1-2.9,0-4.3,0.1L418,455c-2.1,0.1-4.3,0.3-6.4,0.6l0.1,0.1l1.1,2.2l1.3,2.1l2.6,4.2l1.3,2.1
		l0.6,1.1c0.2,0.3,0.5,0.7,0.7,1c1.9,2.7,3.7,5.4,5.7,8c7.9,10.4,17.5,19.6,28.7,26.2l4.3,2.3l4.4,2c1.5,0.6,3,1.1,4.5,1.7
		c1.5,0.5,3.1,0.9,4.7,1.3c3.1,0.8,6.3,1.2,9.5,1.5c0.4,0,0.8,0,1.1,0c0.4,0,0.7,0,1.1,0c0.8,0,1.6-0.1,2.4-0.2
		c1.6-0.1,3.3-0.4,4.9-0.6c6.6-0.9,13.2-2,20.1-2.2c3.4-0.1,6.8,0,10.3,0.5c0.9,0.2,1.7,0.3,2.6,0.5l2.5,0.7c1.6,0.5,3.2,1,4.8,1.6
		c3.2,1.2,6.3,2.5,9.5,3.8c0.3,0.4,0.6,0.9,0.9,1.4c0.2,0.4,0.5,0.8,0.7,1.2c-3.9-1.5-7.9-2.9-11.9-4.1c-3.1-1-6.4-2-9.5-2.4
		c-3.2-0.4-6.4-0.3-9.7-0.1c-3.8,0.3-7.7,0.8-11.5,1.4c0.1,0,0.1,0,0.2,0c2.7,0.6,5.2,1.8,7.6,3.1c4.8,2.7,8.9,6.3,12.9,9.9
		c2,1.8,3.9,3.7,5.8,5.6c1.9,1.9,3.8,3.8,5.7,5.8c1.9,2,3.7,4.3,4.8,7.2c0.5,1.4,0.9,3.1,0.7,4.8c-0.2,1.7-0.9,3.3-1.9,4.6
		c-2,2.5-4.6,4-7,5.3c-1.2,0.6-2.5,1.2-3.6,1.8c-0.5,0.3-1.3,0.6-2,0.9c-0.8,0.3-1.4,0.5-2,0.7l-2,0.6l-2,0.5
		c-1.3,0.4-2.6,0.7-3.9,1c-2.6,0.7-5.3,1.3-7.9,1.9c-10.5,2.3-21.1,4.3-31.8,6c-10.7,1.7-21.3,3.1-32.1,4.1
		c-2.7,0.3-5.4,0.4-8.1,0.6c-2.7,0.2-5.4,0.3-8.1,0.4l-2,0.1l-2,0l-4.1,0c-1.4,0-2.8-0.2-4.1-0.3c-1.4-0.2-2.8-0.3-4.1-0.6
		c-2.7-0.4-5.4-1.1-8.1-1.9c-2.6-0.8-5.2-1.7-7.7-2.8c-5-2.1-9.8-4.8-14.4-7.7c-4.5-3-8.9-6.2-13-9.8c-4.1-3.5-8-7.3-11.5-11.4
		c1.9,1.9,3.9,3.6,6,5.4c2.1,1.7,4.1,3.4,6.3,5c4.3,3.2,8.7,6.2,13.3,8.8c4.6,2.6,9.4,5,14.3,6.8c2.5,1,5,1.7,7.5,2.4
		c2.5,0.6,5.1,1.2,7.7,1.5c1.3,0.2,2.6,0.3,3.9,0.4c1.3,0.1,2.6,0.1,3.9,0.1l4-0.1l2,0l2-0.1c2.7-0.1,5.3-0.3,8-0.5
		c2.7-0.2,5.3-0.4,8-0.8c10.6-1.1,21.2-2.6,31.8-4.3c10.6-1.7,21.1-3.6,31.6-5.7c2.6-0.5,5.2-1.1,7.8-1.7c1.3-0.3,2.6-0.6,3.9-0.9
		l1.9-0.5l1.9-0.5c0.6-0.2,1.3-0.3,1.8-0.6c0.5-0.2,1-0.3,1.7-0.7l3.6-1.7c2.3-1.1,4.5-2.4,5.9-4c0.7-0.8,1.1-1.7,1.3-2.7
		C533.7,548,533.6,546.9,533.2,545.8z M594.7,455.1c-3.6-1-7.2-2-10.8-3.2c-7.2-2.3-14.2-4.8-21.2-7.8c-6.9-3-13.7-6.4-20.1-10.4
		c-2.1-1.3-4.1-2.7-6.1-4.1c-0.3-1.3-0.6-2.7-0.9-4c2.7,2.1,5.5,4.1,8.3,6.1c6.1,4.1,12.7,7.7,19.5,10.8
		c13.5,6.4,27.7,11.3,42.1,15.3C601.9,457,598.3,456.1,594.7,455.1z M414.9,640.8c2,0.7,4.1,1.3,6.2,1.9c7.8,2.1,15.9,3.6,24,5
		c8.1,1.3,16.2,2.4,24.4,3.4c16.3,2,32.7,3.5,49.2,4.8c-16.5-0.3-32.9-1.2-49.4-2.5c-8.2-0.7-16.4-1.6-24.6-2.7
		c-8.2-1.1-16.4-2.5-24.5-4.4c-3.4-0.9-6.9-1.8-10.3-3.2C411.6,642.3,413.3,641.5,414.9,640.8z M597.1,326.8
		c0.9,0.1,1.8,0.1,2.7,0.1c0.9,0,1.8,0,2.7-0.2c3.6-0.4,7.1-1.8,10.2-3.8c3.1-2,5.6-4.8,7.8-7.8c2.2-3,3.9-6.4,5.2-9.9
		c-1.1,3.6-2.7,7-4.7,10.2c-2.1,3.2-4.6,6.1-7.7,8.3c-3.1,2.2-6.7,3.8-10.5,4.4c-0.9,0.2-1.9,0.2-2.9,0.3c-1,0-1.9,0.1-2.9,0
		c-1.9-0.1-3.8-0.5-5.7-0.9c-3.7-1-7.2-2.6-10.6-4.3c-3.4-1.8-6.6-3.7-9.8-5.8c-6.3-4.1-12.4-8.6-18.5-12.8c-2.9-2-5.8-3.9-8.8-5.7
		c0,1.1,0.1,2.2,0.1,3.3c0,16.8-5.6,30.4-12.5,30.4s-12.5-13.6-12.5-30.4c0-1.7,0.1-3.4,0.2-5c-1.8,0.9-3.5,1.9-5.1,3
		c-6,4-10.6,9.8-13.5,16.3c-2.9,6.6-4.2,13.9-4.4,21.2c-0.1,0.9-0.1,1.8-0.1,2.7l0,2.8c0,0.9,0,1.8,0,2.8l0.2,2.8
		c0.2,1.8,0.2,3.7,0.5,5.5l0.8,5.5c0.4,2.2,0.8,4.4,1.3,6.6l-2.9,3.5c0,0,3.2,8.9,7.2,20.9c-1.3-2.7-2.5-5.5-3.6-8.3l-1.9-5.4
		c-0.6-1.8-1-3.7-1.5-5.5c-0.5-1.8-0.9-3.7-1.3-5.6c-0.4-1.9-0.8-3.7-1-5.6l-0.8-5.6c-0.2-1.9-0.3-3.8-0.5-5.7l-0.2-2.8
		c0-1,0-1.9,0-2.9l0-2.9c0-1,0-1.9,0.1-2.9c0.3-7.6,1.6-15.4,4.8-22.5c3.2-7.1,8.3-13.5,14.9-17.8c2.4-1.6,4.9-3,7.5-4.1
		c1.6-12.4,6.3-21.3,11.9-21.3c5.9,0,10.8,9.9,12.1,23.2c0.5,0.3,0.9,0.5,1.4,0.8c3.3,2,6.4,4.1,9.5,6.3c6.1,4.4,12.1,8.9,18.2,13.1
		c3.1,2.1,6.2,4.1,9.4,5.9c3.2,1.8,6.6,3.4,10.1,4.5C593.6,326.2,595.3,326.7,597.1,326.8z M238.1,170.9c0.1-0.4,0.3-0.8,0.4-1.2
		l0.6-1.1l0.3-0.6l0.4-0.5l0.7-1.1c1.1-1.3,2.6-2.4,4.3-3.1c1.8-0.5,3.4-0.7,5.2-0.5c1.7,0.2,3.5,0.8,4.9,1.9c2.9,2.1,4.5,5.1,5.9,8
		c1.4,2.9,2.5,5.9,3.5,8.9c1,3,2,5.9,3.1,8.8c0.8,2.1,1.7,4.2,2.8,6.1c0-0.1-0.1-0.2-0.1-0.3c-1.2-3.5-1.5-7.2-1.1-10.7
		c0.3-3.6,1.5-7,2.8-10.2c2.5-6.4,5.8-12.4,9.5-18.2c3.7-5.7,7.9-11.1,12.5-16.2c4.6-5.1,9.6-9.7,15-13.9
		c5.4-4.1,11.4-7.8,17.8-10.3c1.6-0.6,3.3-1.2,4.9-1.7c1.7-0.4,3.3-0.9,5-1.3l5-1.1l5-0.8c6.7-1,13.5-1.5,20.3-1.6
		c6.8-0.1,13.6,0.1,20.3,0.7c6.8,0.6,13.5,1.7,20.1,3.3c1.6,0.4,3.3,0.9,4.9,1.4c1.6,0.5,3.2,1,4.8,1.4c3.2,0.9,6.5,1.7,9.7,2.4
		c6.5,1.4,13.1,2.5,19.8,3.3c3.3,0.4,6.6,0.7,10,0.9c1.7,0.1,3.5,0.1,5.2,0.1l-0.2-1.8c-0.1-1.1-0.1-2.1-0.2-3.2l-0.1-3.2
		c-0.1-1.1,0-2.2,0.1-3.2l0.2-3.3c0.1-1.1,0.3-2.2,0.5-3.3l0.3-1.6l0.4-1.6c0.3-1.1,0.5-2.2,1-3.2l0.7-1.6c0.2-0.5,0.6-1,0.9-1.5
		c0.6-1,1.4-2,2.2-2.9l0.7-0.6l0.4-0.3l0.4-0.3c0.3-0.2,0.6-0.4,0.9-0.5l0.5-0.2c0.1-0.1,0.4-0.1,0.7-0.2l10.3-2.4l-8.9,5.8
		c-3.3,2.1-5,6.2-5.8,10.4c-0.8,4.3-0.8,8.8-0.5,13.3c0.1,1.8,0.3,3.5,0.4,5.3l1-0.1l1.3-0.1c0.9-0.1,1.8,0,2.7,0.1
		c0.9,0,1.7,0.3,2.6,0.4c0.9,0.1,1.7,0.4,2.5,0.7c0.4,0.1,0.8,0.2,1.2,0.4l1.2,0.5c0.8,0.3,1.6,0.6,2.4,1l2.3,1.1l2.2,1.3
		c8.6,5.4,15.4,13.4,19.7,22.5c4-4.6,8.5-8.7,13.1-12.5c5.7-4.6,11.7-8.6,18.1-12.2c3.3-1.8,7-3,10.7-3.3c3.8-0.3,7.5,0.3,11.1,1.5
		c3.5,1.2,6.8,3,9.8,5c3,2.1,5.8,4.4,8.4,7c5.2,5.1,9.7,10.8,13.5,16.9c-2-3-4.3-5.8-6.7-8.5c-2.4-2.7-4.9-5.3-7.5-7.7
		c-5.3-4.8-11.3-9-18.1-11c-3.4-1-6.9-1.4-10.3-1.1c-3.4,0.4-6.7,1.5-9.7,3.3c-6.1,3.7-12,7.8-17.5,12.4c-1.4,1.2-2.7,2.3-4,3.5
		l-1.9,1.8c-0.6,0.6-1.3,1.2-1.9,1.9l-3.7,3.9L507,155c0.8,2,1.5,4.1,2,6.2c-0.6-2-1.4-4.1-2.2-6l-1.1,1.4
		c-4.4,5.6-8.1,11.6-11.2,18l-2.2,4.9l-0.5,1.2l-0.5,1.3l-0.9,2.5c-1.3,3.3-2.2,6.8-3.2,10.2c0,0.1-0.1,0.2-0.1,0.4
		c0.9,0.9,1.8,1.8,2.7,2.6c3.1,2.5,6.8,4.2,10.8,4.6c4,0.4,8.1-0.3,11.9-1.6c3.9-1.3,7.6-3.3,11.1-5.5c7.1-4.5,13.4-10,19.4-16
		c3-3,5.8-6.1,8.6-9.2c2.8-3.2,5.5-6.4,8-9.8c-4.8,6.9-10.2,13.5-15.9,19.7c-5.8,6.2-12,12-19.1,16.8c-3.5,2.4-7.3,4.5-11.4,6
		c-4,1.5-8.5,2.4-12.9,2c-4.5-0.3-8.8-2.2-12.3-4.9c-0.6-0.5-1.2-1-1.8-1.5c-0.1,0.6-0.2,1.1-0.4,1.7c-0.4,1.7-0.8,3.5-1,5.2
		c-0.5,3.5-1.2,7-1.4,10.6l-0.5,5.3l-0.4,5.4c-0.3,3.6-0.4,7.2-0.6,10.8c-0.3,7.2-0.5,14.4-0.1,21.5l0.2,2.7l0.3,2.6
		c0.1,0.9,0.3,1.7,0.4,2.6l0.2,1.3l0.3,1.2c0.1,0.4,0.2,0.8,0.3,1.2l0.5,1.1l0.2,0.6c0.1,0.2,0.2,0.3,0.3,0.5c0.2,0.3,0.4,0.7,0.6,1
		c0.9,1.2,2.1,2.1,3.5,2.8c0.4,0.2,0.7,0.4,1.2,0.5l0.6,0.2c0.1,0,0.2,0.1,0.3,0.1c0,0,0.1,0,0.1,0c0.5,0.1,1.2,0.1,2-0.1
		c1.6-0.3,3.2-0.9,4.8-1.5c3.2-1.3,6.4-3,9.5-4.8c6.2-3.6,12.1-7.6,17.9-11.9c5.8-4.3,11.3-8.8,16.7-13.6
		c10.8-9.5,20.7-20.1,29.3-31.7c-2,3-4.1,6-6.3,8.8c-2.2,2.9-4.5,5.7-6.8,8.4c-4.7,5.5-9.7,10.7-15,15.8
		c-10.5,10-21.8,19.1-34.3,26.7c-3.1,1.9-6.3,3.7-9.8,5.1c-1.7,0.7-3.5,1.4-5.5,1.8c-1,0.2-2,0.3-3.4,0.1l-0.5-0.2
		c-0.2-0.1-0.2-0.1-0.4-0.1l-0.7-0.3c-0.4-0.2-0.9-0.4-1.3-0.6c-1.8-0.8-3.6-2.1-4.9-3.8c-0.3-0.4-0.5-0.9-0.8-1.3
		c-0.1-0.2-0.3-0.4-0.4-0.7l-0.3-0.7l-0.6-1.4c-0.2-0.5-0.3-0.9-0.4-1.4l-0.4-1.4l-0.3-1.4c-0.2-0.9-0.4-1.9-0.5-2.8l-0.3-2.8
		l-0.2-2.8c-0.5-7.3-0.2-14.6,0-21.8c0.2-3.6,0.3-7.2,0.6-10.8l0.3-5.4l0.5-5.4c0.3-3.6,0.9-7.2,1.5-10.9c0.2-1.8,0.7-3.6,1.1-5.4
		c0.3-1.4,0.6-2.8,0.9-4.1c-1.3-1.7-2.6-3.4-3.6-5.2c-2.2-3.7-4-7.7-5.5-11.7c-0.4-1.1-0.8-2.2-1.1-3.2l0,0.1c0,0.6,0,1.2-0.1,1.8
		l-0.2,1.8c-0.1,0.6-0.2,1.2-0.3,1.8c-0.5,2.4-1.3,4.8-2.7,7c-1.4,2.1-3.3,3.8-5,5.2l-1.3,1.1c-0.5,0.4-1.1,0.9-1.6,1.2
		c-0.6,0.3-1.1,0.6-1.7,0.9l-1.7,0.7c-4.5,1.6-9.1,2.5-13.6,3.4c-4.5,0.9-9,1.8-13.4,2.8c-4.5,1-8.9,2.2-13.2,3.5
		c-1.1,0.4-2.2,0.7-3.2,1.1l-3.1,1.2c-0.5,0.2-1,0.4-1.5,0.7l-1.5,0.8c-1,0.5-2,1-3,1.6c-7.9,4.5-15.3,9.9-22.4,15.8
		c-3.5,2.9-7,5.9-10.4,9c-3.4,3.1-6.8,6.2-10,9.4c6.2-6.7,12.8-13.2,19.7-19.2c6.9-6.1,14.1-11.8,22.1-16.6c1-0.6,2-1.2,3-1.7
		l1.5-0.8c0.5-0.3,1-0.5,1.6-0.8l3.2-1.4c1.1-0.4,2.2-0.8,3.3-1.2c4.4-1.5,8.8-2.7,13.3-3.9c4.5-1.1,9-2.1,13.5-3.1
		c4.5-1,9-2,13-3.5l1.5-0.6c0.5-0.2,0.9-0.5,1.3-0.8c0.4-0.3,0.8-0.6,1.1-0.9l1.3-1.2c1.7-1.6,3.3-3,4.4-4.7
		c2.2-3.4,2.7-7.9,2.7-12.3c0-4.5-0.6-9-1.3-13.4c-0.1-0.4-0.1-0.8-0.2-1.2l-1.3-4.9c-0.5-2.1-1.1-4.1-1.5-6.2l-1.3-6.2l-0.7-3.1
		c-0.2-1-0.3-2.1-0.5-3.2c-0.3-2.1-0.7-4.2-1-6.3l-0.2-2.6c-1.8,0-3.7,0-5.5,0c-3.4-0.1-6.8-0.4-10.1-0.7c-6.7-0.7-13.4-1.7-20-3
		c-3.3-0.7-6.6-1.4-9.9-2.3c-1.6-0.4-3.3-0.9-4.9-1.4c-1.6-0.4-3.2-0.9-4.8-1.3c-6.4-1.5-13.1-2.4-19.7-3c-6.6-0.5-13.3-0.7-20-0.5
		c-6.7,0.2-13.3,0.8-19.9,1.8l-4.9,0.8l-4.9,1c-1.6,0.4-3.2,0.8-4.8,1.3c-1.6,0.5-3.1,1.1-4.6,1.6c-6,2.4-11.7,5.9-16.9,9.9
		c-5.2,4-10.1,8.6-14.5,13.5c-4.4,4.9-8.5,10.2-12.1,15.7c-3.6,5.5-6.8,11.4-9.2,17.4c-1.2,3.1-2.2,6.1-2.6,9.2
		c-0.4,3.1-0.2,6.3,0.9,9.2c1,2.9,2.7,5.5,5,7.7c1.1,1.1,2.4,2.1,3.7,2.9c0.8,0.5,1.7,1,2.6,1.5l1.7,0.8l-1.3,3.1c0,0-0.1,0-0.1-0.1
		l0,0l0,0c-0.9-0.4-1.8-0.8-2.6-1.2l-1.7-0.8l-2.1-1l-1.1-0.5l-1.1-0.6c-1.5-0.8-2.9-1.7-4.2-2.9c-1.3-1.1-2.4-2.5-3.3-3.8
		c-1.9-2.8-3.1-5.8-4.3-8.8c-1.1-3-2.1-6-3-9c-0.9-3-1.9-5.9-3.2-8.7c-1.3-2.7-2.8-5.4-5-7.1c-1.1-0.8-2.4-1.3-3.7-1.5
		c-1.4-0.2-2.9,0-4.1,0.3c-1.3,0.5-2.4,1.3-3.3,2.3c-0.8,1.1-1.6,2.4-2.1,3.8c-1,2.8-1.4,5.8-1.5,8.9c-0.1,3.1,0.2,6.2,0.5,9.2
		c0.4,3.1,1,6.1,1.7,9.2c0.7,3.1,1.5,6,2.9,8.7c1.4,2.7,3.2,5.3,5.4,7.4c2.2,2.2,4.7,4,7.5,5.5c5.5,2.9,11.6,4.7,17.8,5.2
		c-3.1-0.1-6.3-0.6-9.3-1.4c-3-0.8-6-1.8-8.9-3.3c-2.8-1.4-5.5-3.2-7.8-5.4c-2.3-2.2-4.3-4.7-5.8-7.5c-1.6-2.8-2.6-5.9-3.3-8.9
		c-0.8-3-1.5-6.1-2-9.3c-0.5-3.1-0.8-6.3-0.8-9.5C236.7,177.3,237,174.1,238.1,170.9z M198.4,216l0.4-1.4c0.2-0.5,0.4-0.9,0.6-1.4
		c0.4-0.9,0.7-1.9,1.2-2.7c0.4-0.9,0.9-1.8,1.4-2.6l0.8-1.3l0.9-1.2c1.2-1.7,2.7-3.2,4.4-4.4c1.7-1.3,3.9-2.1,6-2.5
		c2.2-0.3,4.4-0.1,6.4,0.5c2,0.6,3.9,1.5,5.6,2.6c3.5,2.1,6.4,4.8,9.1,7.7c5.3,5.8,9.5,12.3,13.1,19.2c1.8,3.4,3.3,7,4.7,10.6
		c1.4,3.6,2.7,7.2,4,10.7c2.6,7.2,5,14.4,7.6,21.5c1.3,3.5,2.7,7.1,4.3,10.5c1.5,3.4,3.3,6.8,5.2,10c1.9,3.2,4.1,6.2,6.5,9.1
		l1.9,2.1l1.9,2.1l3.8,4.2c2.5,2.8,5,5.7,7.8,8.2c2.7,2.6,5.8,4.8,9.1,6.4c3.4,1.6,7.1,2.6,10.8,3l2.8,0.3l2.8,0.1
		c0.9,0.1,1.9,0,2.8,0l2.9-0.1l-2.8,0.3c-0.9,0.1-1.9,0.2-2.9,0.2l-2.9,0.1l-2.9-0.2c-3.8-0.3-7.6-1.1-11.2-2.7
		c-3.6-1.5-6.8-3.8-9.7-6.3c-2.9-2.5-5.6-5.3-8.2-8l-3.9-4.1l-2-2l-2-2.1c-2.6-2.9-5-5.9-7-9.2c-2.1-3.3-3.9-6.7-5.5-10.1
		c-1.7-3.5-3.1-7-4.5-10.6c-2.8-7.1-5.4-14.3-8-21.4c-1.3-3.6-2.7-7.1-4.1-10.6c-1.4-3.5-3-6.9-4.7-10.2
		c-3.5-6.6-7.6-12.9-12.6-18.3c-2.5-2.7-5.2-5.2-8.3-7c-3-1.8-6.4-3-9.6-2.5c-3.2,0.4-6,2.6-8,5.4c-2.1,2.8-3.7,6.2-4.8,9.6
		c-2.1,6.9-1.6,14.4,0.3,21.5c1.9,7.2,5.1,14,8.9,20.4c3.8,6.5,8.2,12.6,13,18.5c4.8,5.8,9.9,11.4,15.4,16.6
		c0.7,0.7,1.4,1.3,2.1,1.9c0.7,0.7,1.4,1.3,2.1,2c1.3,1.4,2.6,2.9,3.8,4.4c2.4,3.1,4.4,6.3,6.3,9.7c3.7,6.7,6.7,13.8,9.3,20.9
		c1.3,3.5,2.5,7.1,3.6,10.7c3-0.1,5.9,0.1,8.9,0.4c3.3,0.4,6.7,1,9.9,1.9c3.3,0.9,6.4,2.2,9.4,3.3c1.5,0.5,2.9,1,4.3,1.1
		c1.4,0.2,2.7,0.1,4-0.3c2.7-0.8,5.4-2.3,8-4.1c2.6-1.8,5.1-3.8,7.5-5.9c2.5-2.1,4.9-4.3,7.2-6.5c2.4-2.2,4.7-4.4,7-6.7
		c4.5-4.5,8.8-9.4,12.6-14.5c3.8-5.2,7.1-10.6,9.8-16.4c1.3-2.9,2.5-5.9,3.4-8.9c0.9-3,1.6-6.1,2.1-9.2c0.5-3.1,0.6-6.3,0.4-9.4
		c-0.2-3.1-0.7-6.2-1.6-9.2c-0.9-3-2.2-5.8-3.9-8.4c-0.4-0.6-0.9-1.2-1.4-1.9c-0.5-0.6-1-1.2-1.5-1.7c-0.6-0.5-1.1-1.1-1.7-1.6
		l-1.8-1.6c-5.2-4.3-9.5-9.5-13.1-15c-3.6-5.6-6.5-11.6-8.7-17.8c-1.1-3.1-2-6.3-2.7-9.5c-0.6-3.2-1.1-6.5-1-9.8
		c0.1,3.3,0.8,6.5,1.7,9.6c0.4,1.6,0.9,3.1,1.4,4.7c0.6,1.5,1.1,3.1,1.8,4.5c2.5,6,5.6,11.7,9.4,16.9c3.7,5.2,8.1,10,13.1,13.9
		l2,1.6c0.7,0.5,1.3,1.2,1.9,1.7c0.6,0.6,1.2,1.3,1.8,1.9c0.5,0.7,1.1,1.4,1.6,2.1c2,2.8,3.5,6,4.6,9.2c2.2,6.5,2.6,13.5,1.8,20.2
		c-0.4,3.4-1.1,6.7-2,9.9c-1,3.2-2.1,6.4-3.5,9.5c-5.5,12.3-13.7,23.1-23.1,32.4c-2.4,2.3-4.8,4.6-7.2,6.8c-2.4,2.2-4.9,4.4-7.4,6.6
		c-2.5,2.1-5.1,4.2-7.9,6.1c-2.8,1.9-5.8,3.7-9.5,4.6c-1.8,0.4-3.8,0.5-5.7,0.3c-1.9-0.3-3.6-0.8-5.2-1.4c-3.2-1.2-6-2.5-9.1-3.4
		c-3-0.9-6.1-1.6-9.2-2c-2.4-0.3-4.9-0.5-7.4-0.6c0.7,2.5,1.3,4.9,1.9,7.4c-0.7-2.5-1.5-5-2.3-7.4c-0.6,0-1.1,0-1.7,0
		c-0.8,0-1.6,0-2.3,0.1l-0.2,0c-0.9,15.3-7.7,27.2-15.9,27.2c-4.6,0-8.7-3.7-11.7-9.7c-0.3,0.4-0.6,0.8-0.9,1.2
		c-3.8,5.2-6.9,10.9-9.6,16.9c-1.3,3-2.6,6-3.7,9c-1.1,3.1-2.1,6.2-3,9.3c1.2-6.4,3.1-12.7,5.4-18.9c2.3-6.1,5.3-12.1,8.9-17.7
		c0.6-0.8,1.1-1.7,1.7-2.5c-2-5.1-3.2-11.6-3.2-18.5c0-17,7.2-30.7,16-30.7c2.5,0,4.9,1.1,7,3.1c-0.6-1.2-1.3-2.3-2-3.5
		c-1.9-3.2-4-6.4-6.4-9.3c-1.2-1.5-2.4-2.8-3.7-4.1c-0.7-0.7-1.3-1.2-2-1.9c-0.7-0.6-1.5-1.3-2.2-1.9c-5.7-5.1-11-10.7-16-16.5
		c-5-5.9-9.6-12-13.5-18.6c-3.9-6.6-7.4-13.6-9.5-21.2c-1-3.8-1.7-7.7-1.8-11.7C196.8,223.9,197.2,219.8,198.4,216z M150,185.2
		c14.5,0,26.2,11.7,26.2,26.2s-11.7,26.2-26.2,26.2c-14.5,0-26.2-11.7-26.2-26.2S135.6,185.2,150,185.2z M259.3,639.1
		c-1.1,0.1-2.1,0.1-3.2,0.2c-1.1,0-2.1,0-3.2,0c-4.2-0.1-8.5-0.6-12.6-1.4c-8.3-1.7-16.2-4.6-23.6-8.8c-7.3-4.2-14-9.4-19.6-15.6
		c-5.6-6.2-10.2-13.2-13.7-20.8c-3.5-7.5-5.8-15.5-7.3-23.6c1,4,2.1,8,3.6,11.8c1.4,3.9,3,7.6,4.9,11.2c1.9,3.6,4,7.1,6.4,10.4
		c2.4,3.3,5,6.4,7.8,9.3c5.6,5.8,12.2,10.7,19.4,14.5c5.1,2.7,10.6,4.8,16.1,6.4c-0.5-6.7,0.2-13.5,1.8-20.2
		c0.9-3.6,2.1-7.2,3.5-10.6c1.5-3.4,3.1-6.8,5-10c3.9-6.4,8.6-12.3,14-17.4c2.7-2.6,5.6-4.9,8.6-7c1.1-0.8,2.3-1.5,3.4-2.2
		c-1.7-2.7-3.3-5.5-4.7-8.4c-1.9-4-3.5-8.1-4.8-12.4c-1.3-4.2-2.3-8.5-3.1-12.9c-0.7-4.3-1.2-8.7-1.5-13.1c0-0.1,0-0.2,0-0.4
		c-4.7-6.3-9.3-12.7-13.9-19.2c-8.6-12.1-17-24.4-25-37l-5.9-9.5c-2-3.2-3.8-6.4-5.7-9.6c-1-1.6-1.8-3.2-2.7-4.9l-2.6-4.9
		c-0.6-1.1-1.2-2.3-1.7-3.4c-0.4,0.9-0.8,1.8-1.2,2.6l-5.7,12.5l-2.9,6.3l-1.4,3.1l-1.3,3.1c-3.3,8.3-5.6,17.1-7.1,26.1
		c-1.5,8.9-2.2,18-2.4,27.1c-0.2,9.1,0.1,18.3,1.1,27.2l0-0.2c0.3,1.4,0.4,2.6,0.5,3.9c0.1,1.3,0.2,2.6,0.2,3.9
		c0,2.6-0.1,5.2-0.3,7.7c-0.5,5.1-1.8,10.2-3.7,15c-1.9,4.8-4.6,9.3-7.9,13.3c-1.7,2-3.4,3.9-5.4,5.6c-1.9,1.7-4,3.3-6.3,4.7
		c-2.3,1.3-4.7,2.5-7.3,3.1c-2.6,0.7-5.5,0.8-8.2,0.3c-2.7-0.5-5.3-1.8-7.5-3.4c-2.2-1.6-4-3.6-5.5-5.8c-3-4.3-4.9-9.1-6.4-14
		c-1.5-4.9-2.4-9.8-3.1-14.8c-1.3-10-1.5-20-1.2-30c0.4-10,1.6-20,4-29.7c2.4-9.7,6-19.2,11.1-27.8c2.5-4.3,5.5-8.4,8.8-12.1
		c1.7-1.9,3.4-3.6,5.3-5.3c1.4-1.2,2.8-2.4,4.3-3.4c-3.2-2.4-5.9-5.5-8.1-8.7c-2.3-3.3-4.3-6.9-5.7-10.6l-0.6-1.4l-0.5-1.4l-1-2.8
		c-0.6-1.9-1.2-3.8-1.6-5.7c-1-3.9-1.7-7.8-2.2-11.7c-0.2-2-0.6-3.9-0.6-5.9l-0.2-3c-0.1-1,0-2,0-3c0-4,0.4-8.1,1.3-12.1
		c0.9-4,2.4-8,4.8-11.5c2.4-3.5,5.8-6.5,9.9-8c4-1.6,8.5-1.8,12.5-1c4.1,0.8,7.9,2.4,11.3,4.6c3.4,2.2,6.4,4.9,9,8
		c2.5,3.1,4.7,6.4,6.4,10c1.7,3.6,2.8,7.4,3.6,11.2c-1.3-3.7-2.8-7.2-4.8-10.6c-1.9-3.3-4.3-6.4-7-9.1c-2.6-2.7-5.6-5.1-8.9-6.9
		c-3.2-1.8-6.7-3.1-10.3-3.6c-3.6-0.5-7.2-0.1-10.4,1.2c-3.2,1.3-5.8,3.8-7.8,6.7c-1.9,2.9-3.3,6.4-4,10c-0.7,3.6-1.1,7.3-1.1,11.1
		c0,7.5,1.1,15.1,2.7,22.6c0.4,1.9,0.9,3.7,1.4,5.5l0.9,2.7l0.4,1.3l0.5,1.3c0.3,0.9,0.7,1.8,1,2.6l1.2,2.6c0.4,0.9,0.9,1.7,1.3,2.5
		l0.7,1.2c0.2,0.4,0.5,0.8,0.8,1.2c2,3.2,4.4,6.1,7.2,8.5c2.8,2.4,6,4.4,9.5,5.7c6.8,2.6,14.5,2.8,21.8,1.1l0.4-1l1.4-3.2l2.8-6.3
		l5.7-12.5c1-2.1,1.9-4.2,2.9-6.3l-0.5-1l0.5,0.9c2.8-6.2,5.6-12.5,8.3-18.8c1.8-4.2,3.5-8.4,5.1-12.7c1.6-4.3,3-8.6,4.1-12.9
		c1.1-4.3,2-8.7,1.8-12.9c-0.1-2.1-0.4-4.4-0.7-6.7c-0.3-2.2-0.6-4.5-1-6.7c-1.5-9-3.3-18-5.5-26.8c-2.2-8.9-4.7-17.7-7.7-26.3
		c-3-8.6-6.4-17.1-11-24.8c-2.3-3.8-5-7.5-8.2-10.3c-1.6-1.4-3.4-2.6-5.3-3.3c-1.9-0.7-3.9-0.9-5.9-0.5c-2,0.4-3.9,1.2-5.5,2.5
		c-1.6,1.3-2.9,2.9-4,4.8c-2.1,3.8-3,8.2-3.5,12.7c-0.9,9,0,18.1,1.4,27.1c1.4,9,3.5,18,6.1,26.8c2.6,8.8,5.5,17.5,9.1,26
		c1.8,4.2,3.7,8.4,5.8,12.5c1.1,2,2.2,4,3.5,5.9c1.3,1.9,2.7,3.8,4.5,5.2c-1.9-1.4-3.3-3.2-4.7-5.1c-1.3-1.9-2.6-3.8-3.7-5.8
		c-2.3-4-4.3-8.1-6.2-12.3c-3.8-8.4-7-17.1-9.8-25.9c-2.8-8.8-5.1-17.7-6.8-26.8c-0.8-4.5-1.5-9.1-1.9-13.8c-0.4-4.6-0.5-9.3-0.1-14
		c0.4-4.7,1.3-9.4,3.6-13.8c1.1-2.2,2.7-4.2,4.7-5.8c2-1.6,4.4-2.7,6.9-3.2c2.5-0.5,5.3-0.3,7.7,0.6c2.4,0.9,4.5,2.2,6.4,3.8
		c3.7,3.2,6.6,7.1,9.1,11c4.9,8,8.5,16.7,11.7,25.4c3.1,8.7,5.7,17.6,8,26.6c2.3,9,4.2,18,5.8,27.1c0.4,2.3,0.8,4.6,1.1,6.9
		c0.3,2.3,0.6,4.6,0.7,7.1c0.2,5-0.8,9.7-1.9,14.3c-1.2,4.6-2.6,9-4.2,13.4c-1.6,4.4-3.3,8.7-5.1,12.9c-3.1,7.4-6.4,14.8-9.7,22.1
		c0.7,1.2,1.3,2.4,2.1,3.6l2.9,4.7c1,1.6,1.9,3.2,3,4.7c2.1,3.1,4,6.2,6.1,9.3l6.3,9.2l6.4,9.1l6.5,9c2.2,3,4.4,6,6.6,9
		c2.2,3,4.4,6,6.6,8.9c3.6,4.8,7.2,9.5,10.8,14.3c0-1.9,0-3.8,0.1-5.7c0.8-17.5,4.8-34.5,10.6-50.7c2.9-8.1,6.3-16,10.2-23.6
		c1.9-3.8,4-7.6,6.2-11.2c1.1-1.8,2.2-3.6,3.4-5.4c1.2-1.8,2.4-3.6,3.6-5.3c-3,8-5.8,15.9-8.4,23.9c-2.6,8-5,16-7.1,24.1
		c-4.2,16.1-7.2,32.4-8,48.7c-0.3,6.5-0.2,13,0.3,19.4c1.8,2.3,3.5,4.6,5.3,6.8c4.6,5.8,9.1,11.7,13.8,17.4c0.8,1,1.7,2,2.5,3
		c1-3.5,2.4-6.8,3.9-10c3.4-6.8,7.4-13.2,11.6-19.4c4.3-6.2,9.7-12.2,16.6-16.1c3.4-2,7.1-3.4,10.9-4.3c3.8-0.9,7.7-1.2,11.6-1.2
		c7.7,0.1,15.2,1.7,22.4,3.3c3.6,0.8,7.2,1.7,10.8,2.4c1.8,0.3,3.7,0.8,5.5,1.3c0.9,0.2,1.8,0.5,2.7,0.9l2.7,0.9
		c7.1,2.7,13.7,6.3,20.1,10c12.9,7.6,25.1,16.1,36.7,25.3c-12.3-8.3-24.8-16.3-37.9-23.3c-6.5-3.5-13.2-6.7-20.1-9.1l-2.6-0.8
		c-0.9-0.3-1.7-0.6-2.6-0.7c-1.8-0.4-3.4-0.8-5.3-1.1c-3.7-0.6-7.3-1.4-11-2.2c-3.6-0.7-7.2-1.4-10.8-1.9c-3.6-0.5-7.2-0.9-10.8-0.8
		c-3.6,0-7.1,0.4-10.5,1.2c-3.4,0.9-6.7,2.2-9.7,4c-3,1.8-5.8,4-8.2,6.5c-2.5,2.5-4.7,5.3-6.8,8.3c-4.1,6.1-8,12.3-11.2,18.8
		c-1.6,3.2-3,6.6-3.9,9.9l-0.3,1.3l-0.2,0.7c-0.1,0.3-0.1,0.5-0.4,1.1l-0.1,0.2c0,0-0.1,0.2-0.3,0.4c-0.1,0.2-0.3,0.3-0.5,0.5
		c-0.2,0.1-0.6,0.4-1,0.4c-0.4,0.1-0.7,0.1-0.9,0c-0.2,0-0.5-0.1-0.7-0.2c-0.3-0.1-0.4-0.2-0.6-0.3c-0.4-0.3-0.6-0.5-0.8-0.7
		c-0.4-0.4-0.6-0.6-1-1c-1.4-1.6-2.5-3-3.7-4.4c-4.7-5.8-9.3-11.7-13.8-17.6c-0.2-0.3-0.5-0.6-0.7-0.9c1.1,6.7,2.7,13.3,5.1,19.7
		c1.4,3.8,3.1,7.5,5,11.1c1.9,3.6,4.1,7,6.4,10.4c2.3,3.4,5,6.5,7.8,9.6l2.1,2.3c0.7,0.8,1.5,1.5,2.2,2.2c1.5,1.5,3.1,2.9,4.6,4.4
		c-7.6-3.9-14.7-9-20.8-15.2c-3-3.1-5.9-6.5-8.4-10.1c-0.4-0.5-0.7-1.1-1.1-1.6c-1,0.9-1.9,1.8-2.8,2.7c-2.6,2.5-5,5.1-7.4,7.8
		c-4.7,5.4-8.9,11.2-12.6,17.2c-1.8,3-3.5,6.2-5,9.4c-1.5,3.2-2.8,6.5-4,9.9c-2.2,6.2-3.7,12.6-4.9,19.2c2,0.5,4.1,1,6.2,1.4
		c4,0.7,8,1.1,12,1.1c1,0,2,0,3-0.1c1-0.1,2-0.1,3-0.2c2-0.2,3.9-0.5,5.8-1c7.7-1.8,15.2-5.2,22.3-9c7.1-3.9,14.1-8.2,21.1-12.6
		c3.5-2.2,7-4.3,10.7-6.4c1.9-1,3.8-2,5.8-2.8c2-0.8,4.1-1.6,6.5-1.9c2.5-0.3,4.8,0.1,6.9,0.5c2.2,0.5,4.2,1.2,6.2,1.9
		c4,1.5,7.8,3.3,11.5,5.2c7.4,3.8,14.6,7.9,21.7,12.1c7.1,4.2,14.2,8.3,21.4,12.2c1.5,0.8,3,1.6,4.6,2.4c-1.4,0.9-2.7,1.7-4,2.6
		c-0.8-0.4-1.6-0.8-2.5-1.3c-7.4-3.8-14.5-7.9-21.7-12c-7.2-4.1-14.3-8.2-21.5-11.8c-3.6-1.8-7.3-3.6-11-5c-1.9-0.7-3.7-1.3-5.6-1.7
		c-1.8-0.4-3.7-0.7-5.3-0.4c-1.7,0.2-3.5,0.8-5.3,1.6c-1.8,0.8-3.6,1.6-5.3,2.6c-3.5,1.9-7,4-10.5,6.2c-7,4.3-14,8.7-21.4,12.6
		c-7.4,3.9-15.1,7.3-23.5,9.1C263.6,638.6,261.4,638.9,259.3,639.1z M292.8,716.7c20.5,5.3,38.1,8.2,50.6,9.4
		c54.2,5.3,197.4-18.5,212.3-87.5c2.3-10.7,5.2-20.1,8.6-28.4c19.7-4.7,42.4-1.5,51,1.4c13,4.3,83.9,30.9,86.2,42
		c2.3,11.2,3.4,75.4,0,82.9c0,0-7,16.8-50.7,101.9c-43.7,85.1-69.9,179.4-80.5,209c-10.5,29.6-80.5,51.3-87.5,47.4
		c-7-3.9-47.2-49.5-61.2-47.4c-14,2.1,12.2-31.9,0-64.1c-12.2-32.2-43.7-83.4-73.5-87.3c-29.7-3.9-41.3,0-45.1-37.4
		C299.3,822.2,281,739.5,292.8,716.7z M467.4,1101.1c-7.2-1.2-12.8,8.3-31.8,21.4c-19,13.1-60.1,34.5-60.1,34.5s0-8.4,15.8-61.8
		c15.8-53.4,32.7-33.2,43.2-30.8C445,1066.7,474.5,1102.3,467.4,1101.1z M296.4,1085.7c-4.2-40.3,9.1-174.4,6.7-192.2
		c0,0,13.4,4.6,32.4,11.2c19,6.6,33.7-0.4,43.2,20.9c9.5,21.3,33.7,39.3,33.2,53.5c-0.5,14.1,2.6,45.5,0,54.1
		c-2.6,8.6-31.1,5.1-31.1,35.9c0,30.8-13.7,83-16.9,93.7c-3.2,10.7-21.1,24.9-28.5,24.9C328,1187.7,300.6,1126,296.4,1085.7z
		 M337.6,1208.8c10.5-17.7,52.5-45.3,73.5-59c21-13.8,52.5-41.3,77-41.3c24.5,0,84-39.4,84-39.4s-0.7,82.7,14.5,110.2
		c15.2,27.6,11.7,70.9,11.7,100.4c0,29.5,7,82.8,21,93.4c14,10.5,14,30.6,10.5,46.4c-3.5,15.7-31.5,50.3-36.7,43.8
		c-5.2-6.5-56-122.6-47.2-133.4s1.7-55.2-31.5-27.1c-33.2,28.1,8.7,29.2,15.7,54.2c7,25-21,75.3,14,76.2c35,0.9,29.7,9.8,29.7,21.6
		c0,11.8,14,15.7-26.2,45.3c-40.2,29.5-103.2,70.9-113.7,70.9c-10.5,0-38.5-41.3-80.5-88.6c-42-47.2-57.7-80.7-47.2-141.7
		C316.7,1279.7,327.2,1226.5,337.6,1208.8z M524.2,1760c0.7,20.6,12.2,67.5,12.2,78c0,10.5,7.9,16.2-14.4,24.3
		c-22.3,8.1-43.8,14.6-62.5,0c-18.7-14.6-83.4-63.1-81.2-133.5c2.2-70.4,12.2-77.6,23.7-92.2c11.5-14.6,17.1-45.4,25.2-42.9
		c14.5,4.6,16.5,21,34.5,30.3c18,9.3,28.8,15.8,31.6,26.3c2.9,10.5,2.2,21.8,0,33.2c-2.2,11.3,19.8,11.3,17.1,16.2
		C507.7,1704.5,523.5,1739.4,524.2,1760z M489.6,1623.4c-1.3-5.9-31.3-24.5-41.7-41.3c-7.5-12.1,53.3-40.9,67.7-49
		c14.4-8.1,53.2-38.8,57.5-33.2c4.3,5.7-28,50.3-55.9,71.1C489.2,1591.8,490.9,1629.3,489.6,1623.4z M244.6,1294.5
		c0-17.8,9.3-51.8,21.6-55s41-26.7,47.4-22.6c6.5,4-1.4,28.3-3.6,53.4c-2.2,25.1-15.8,63.1-15.8,82.5c0,19.4,29.1,119.5,37.4,128.6
		c14.5,16,24.3,32.4,46.7,50.1c22.3,17.8,38.1,27.5,32.4,46.9c-5.8,19.4-21.6,46.9-28.8,60.7c-7.2,13.8-24.4,42.1-38.1,51
		c-13.7,8.9-42.4,21.8-54.6,17.8s-34.5-15.4-29.5-41.3c5-25.9,4.3-105.1,4.3-118.9c0-13.8-11.5-117.3-12.2-159.3
		C251,1346.2,244.6,1312.3,244.6,1294.5z M249.6,1696.5c-7.9,4-33.1-8.1-33.8-45.3c-0.7-37.2-21.6-95.4-11.5-118.9
		c10.1-23.5,37.9-49.5,40.3-19.4c0,0,5,59,5,84.1c0,25.1-12.9,51.8-5,65.5C252.5,1676.2,257.5,1692.4,249.6,1696.5z M439.2,2030.4
		c0,12.7,3.5,42.9-2.6,49.8c-6.1,6.8-43-13.7-58.4-20.5c-15.3-6.8-34.4-21.5-50-44.9c-15.6-23.4-41.6-48.8-50.3-72.2
		c-8.7-23.4-26.8-84.9-33.3-104.4c-6.5-19.5-16.9-28.3,0-55.6c16.9-27.3,12.5-59.5,29-60.5c16.5-1,60.7-8.8,78.9-20.5
		c6.1-3.9,15.6,14.5,15.6,30.6c0,16.2,33.8,92.3,51.1,105.9c17.3,13.7,34.7,28.3,34.7,70.2c0,41.9,4.3,91.7,0,100.5
		C449.6,2017.7,439.2,2017.7,439.2,2030.4z M609.9,2353.6c-22.7-34.3-62.1-101.5-74.5-148.9c-12.4-47.4-86-104.6-86-104.6
		s-6.2-46.6,6.2-72.2c12.4-25.6,7.3-81.6,7.3-104.9c0-23.3,4.1-32.6,16.6-33.8c12.4-1.2,35.2-20.1,96.3-19.4
		c61.1,0.7,100.5-12.1,125.3-12.1c24.9,0,45.6,12.5,60.1,12.1c7.6-0.2,11.8,11.2,14,22.1c-2.4-21-5-52.2,0.5-57.5
		c8.3-8.2,34.2-42.8,21.8-28.4c-12.4,14.4-34.2,30.7-40.4,7.4c-6.2-23.3-6.2-57.1-20.7-57.1s-26.9,7-44.5,7
		c-17.6,0-20.7-26.8-10.4-26.8c10.4,0-6.2-10.5-10.4,0c-4.1,10.5-14.5,37.3,8.3,37.3c22.8,0,38.3-17.5,46.6-7
		c8.3,10.5,8.3,31.8,19.7,39.2c11.4,7.4,20.7,38.9,6.2,40.1s-17.6-4.8-67.3,5.2c-49.7,10-117.1,6.5-134.7,7.6
		c0,0-12.4-74.6-16.6-96.7c-4.1-22.1-31.1-88.6-31.1-115.4c0-26.8,14.5-65.9,31.1-83.7s73.5-83,83.9-85.3c10.4-2.3-1-24.5,21.8-26.8
		c22.8-2.3,62.2-3.5,84.9,0c22.8,3.5,72.5,13.1,74.6-2.2c2.1-15.3-5.2-21.2-28.2-17.8c-23,3.5-95.2,13.6-86-1
		c9.2-14.6,67.5-30.1,84.4-56.9c16.9-26.8,24.6-33.7,24.6-54.4c0-20.7,35.3,141.6,81.4,176.2c46.1,34.5,58.3,44.9,84.4,77.7
		c26.1,32.8,58.3,65.6,58.3,88.1c0,22.5-15.4,89.8,3.1,124.4c18.4,34.5,32.2,5.7,59.9,21c27.6,15.3,44.4,0,44.4,0
		s23.7,45.2,25.4,63.8c1.7,18.6-4.6,26.4-30.5,55.5c-25.9,29.1-44.5,58.3-53.9,72.3s-16.6,14.3-34.2,16.5
		c-17.6,2.2-59.5-38.6-51.5-25.8c8,12.8-5.4,28.2,8,25.8c13.5-2.5,13.5-12.7,26.9,0c13.5,12.7,14.5,37.2,35.2,15
		c20.7-22.1,32.3-30.3,58-75.2c25.7-44.9,45.6-42.5,50.8-58.8c5.2-16.3,10.4,42,0,72.3c-10.4,30.3-17.7,43.4-29,46.8
		c-11.4,3.4-12.4,3.7-16.5,23.9c-4.1,20.2-61.1,30.7-91.2,48.2c-30,17.5-11.4-16.3-11.4-16.3s-2.1,3-39.4,21.3
		c-37.3,18.3-45.6,14.8-58,39.3c-12.4,24.5-14.9,34.5-49.9,50.5c-35,16-88.9,47-121,0c-32.1-47-58-79.6-58-112.3
		c0-32.6,4.1-65.3,19.7-74.6c15.5-9.3,36.3-10.5-19.7-24.5c-55.9-14-66.3-22.2-73.5-15.8c-7.3,6.4,22.8-8.7,22.8,20.4
		c0,29.1-14.5,30.7,10.4,31.6c24.9,1,45.6-1.3,37.3,19.6c-8.3,21-26.9-11.7-22.8,29.1c4.1,40.8,16.6,31.5,16.6,43.1
		c0,11.7,15.5,51.9,43.5,79c28,27.1,38.3,34.1,57,43.4c18.6,9.3,28,14,25.9,39.6c-2.1,25.6-36.3,72.3-44.5,88.6
		c-8.3,16.3-41.4,43.1-68.4,45.5C661.8,2396.2,632.6,2387.9,609.9,2353.6z M1255.3,2074.6c11.6-4.3,10.6-10.9,33.8,9.8
		c23.1,20.6,55,45.6,64.6,49.9c9.6,4.3,20.3,17.4,24.1,28.2c3.9,10.9,7.6,17.4-9.7,18.4c-17.3,1.1-14.8-4.2-26.9-4.1
		c-12.1,0.1-5.2,5.7-22,4.1c-16.8-1.6-16-9.7-35.8-9.8c-19.8-0.1-11.2-3.5-11.2-13.7s-6.9-16.6-6.9-16.6s1.3,2-1.3,13.2
		c-2.6,11.2-3,8.2-9.5,10.7c-6.5,2.4-4.3-12.1-4.3-12.1l-18.1-0.5c0,0,4.7,7.3,4.3,12.6c-0.4,5.3-6.5,9-4.7,12c1.7,3,6.5-0.4,9.1,2
		c2.6,2.4,4.3,9.7,4.3,9.7s1.7-4.9,7.3-4.9c5.6,0,9.9-3,9.5,7c-0.4,10,20.5,15.2,38.9,2.7c18.4-12.5-4,5.9,14.1,7.3
		c18.1,1.4-4.7-4.9,18.5-6.8c23.3-1.9,20.7,6.4,25.9-3.2c5.2-9.6,31.5,1.8,37.1,10.2c0,0-42.7,28.4-76.3,49.2
		c-33.6,20.9-73.7,46.1-82.3,49.5c-8.6,3.4-18.5,0.5-24.6,4.9c-6,4.4,2.6-5.3,11.2-14.6c8.6-9.2-4.7-24.3-7.8-24.3
		c-3,0-20.3-8.2-20.3-13.1c0-4.9-11.6,22.3-21.1,34.9c-9.5,12.6,15.1-12.6,17.7-12.6c2.6,0-2.2-12.6,2.6-12.1
		c4.7,0.5,16.4,8.2,16.4,10.2c0,1.9,8.6-1.5,8.6,1.5s-0.4,12.6-9.9,21.3c-9.5,8.7-9.1,12.6-9.1,12.6s-21.6,5.8-47,26.2
		c-25.4,20.4-50.4,53.4-66.8,67.4c-16.4,14.1-47,41.7-60.8,49c-13.8,7.3-46.1,38.3-50,49c-3.9,10.7-15.5,16.5-22.9,15
		c-7.3-1.5-68.6-30.1-79.3-55.3c-10.8-25.2-13.8-83.9-8.6-97.5c5.2-13.6,12.1-20.4,20.3-40.8c8.2-20.4,24.1-56.3,32.8-72.3
		c8.6-16,9.5-21.8,16-21.8c6.5,0,12.1,11.6,17.7,13.6c5.6,1.9,12.5,2.9,12.5,2.9s-13.4-8.7-13.4-14.6c0-5.8,2.2-25.2-2.6-25.2
		c-4.7,0-5.6-10.4,0-27.3c5.6-16.9,7.3-24.2,25.9-35.8c14.3-9,30.6,1.1,37.3,6.1c-5.5-4.6-16.2-14.2-14.9-17.8
		c1.7-4.9,9.1-16,20.7-14.1c11.6,1.9,9.5,0.5,13.4-4.9c3.9-5.3-1.3-11.2,7.8-13.6s16,2.4,24.6,2.4c8.6,0,18.1-1.5,18.1-6.8
		c0-5.3-9.9-1.9-9.9-4.4c0-2.4,8.2-9.2,14.2,0.5c6,9.7,16.4-9.7,24.6-11.2c8.2-1.5,19-3.9,19-3.9s-10-19.4-10-23.3
		c0-3.9,13.8-17,21.6-27.2c7.8-10.2,28.5-32,34.5-50.5c6-18.4,6-31,17.2,0c11.2,31.1,14.7,40.3,24.6,48c9.9,7.8,16,16,17.2,28.1
		c1.3,12.1-4.1,46.4-14.6,63.7C1220.6,2112.6,1243.7,2078.9,1255.3,2074.6z M1405.5,2234.6c-1.9,5.5-14.5,18.8-7.5,18.8
		c6.9,0,6.3-6.3,15.9,0c9.6,6.3,18.2,41.9,20.1,60.7c1.9,18.8,5,62.8,16.8,87.2s37.8,55.8,58.3,69.1c20.5,13.3,19.2,14.7,15.5,25.1
		c-3.7,10.5-1.9,7-16.7,3.5c-14.9-3.5-68.8-27.2-89.9-35.6c-21.1-8.4-34-10.5-49.9-29.3c-15.9-18.8-84.1-70.5-95.3-86.5
		c-11.2-16.1-20.1-20.3-19.2-27.9c1.9-17.3,8.7-27.2,16.1-30.7c7.4-3.5,91.3-61.4,98.4-62.8c7.1-1.4,5.8,12.6,12,12.6
		c6.2,0-6.2,11.9-6.2,11.9s16.8,2.4,24.1-32.8C1405.3,2182.6,1407.4,2229,1405.5,2234.6z M1398,2171.2l31.8,10.9l-18.9,8.7
		C1410.9,2190.7,1400.9,2176.6,1398,2171.2z M1354.7,2639.3c-11.2,7-44,19.5-93,0c-49-19.5-236.3-89.3-250.6-92.8
		c-14.3-3.5-34.7-13.3-30.4-41.2c4.3-27.9,52.1-51.6,59.5-55.8c7.4-4.2,69.4-53.3,89.8-82.4c20.3-29.1,57.2-47.4,67.8-46.8
		c5.5,0.3,9.3,0,18.6,0c9.3,0,11.8-5.9,21.7,1.2c9.9,7.1,56.4,55.3,65.1,62.3c8.7,7,26.1,14,24.8,22.3c-1.2,8.4-21.1,18.8-18.6,26.5
		c2.5,7.7,32.3,15.4,32.3,20.9c0,5.6,0-4.9,6.8-4.2c6.8,0.7,22.3,2.8,22.3,11.9c0,9.1-8.7,60-8.7,82.4c0,22.3,0,59.3-0.6,74
		C1360.9,2632.3,1365.8,2632.3,1354.7,2639.3z M1067.5,2674.9c-5.6-2.8-5.6-2.8-5.6-2.8s-6.2-11.2,0-37.7s15.5-48.9,9.3-53
		c0,0,189.8,67.7,190.4,72.6c0.6,4.9-21.7,21.6-46.5,41.2c-24.8,19.5-67,70.5-102.3,57.2c-35.4-13.3-41.6-44-41.6-46.8
		C1071.2,2702.8,1073.1,2677.7,1067.5,2674.9z M811.9,2263.7c0,0,14.5,32.1,23.2,43.6c8.6,11.5,25.1,43.2,25.1,56.4s2.4,75,0,79.4
		c-2.4,4.4-29.1-31.7-48.2-41.4c-19.2-9.7-49-18.5-49-34.4s17.5-26.9,26-49.2C797.4,2295.8,811.9,2263.7,811.9,2263.7z
		 M793.2,2212.6c13.6,1.2,43.4-9.1,52.8-12.5c1.1-0.6,2.1-1,3-1.1c0,0-1.1,0.4-3,1.1c-11.9,6.5-33.1,39-33.1,39
		C812.5,2227.7,776.9,2211.2,793.2,2212.6z M833.7,2291.5c-15.4-15.8-14.1-30.1-11.7-37.7c2.3-7.5,22.8-41.5,34.2-38.8
		c11.4,2.6,17.1,18.1,23.1,1.9c6-16.2,10-27.5,17.4-30.1c7.4-2.6,34.8-22.2,34.8-13.6c0,12.9,21.1-6.4,0,31.5
		c-21.1,37.9-21.8,48-25.8,60.5c-4,12.4-18.8,38.4-23.4,49.7c-4.7,11.3-13.7,23.4-14.7,32c-1,8.7-4,9.4-4,9.4
		S849.1,2307.4,833.7,2291.5z M911.8,2162v-3.7c0,0,2.5-1.4,3.7-19.6c1.2-18.2,15-17.9,33.7-22.6c18.7-4.7,11.7,15,2.9,20.1
		C943.4,2141.4,911.8,2162,911.8,2162z M764.1,2630c-13.8-2.5-74.1-77.6-74.1-77.6s-66.9-51.2-69.8-88.2c-2.8-37,12.8-33.4,11-60.9
		c-1.3-19.3,65.8,19.6,96.4-9.1c30.6-28.8,33.9,1.1,61.3,15.7c27.3,14.6,30,36.7,60,52.5c30,15.9,48,25.6,48,36.2
		c0,10.6-27.4,26.7-33.4,50.3c-5.9,23.5-53.6,89.1-59.1,94.4C799,2648.6,778,2632.6,764.1,2630z M1538.9,2919.6
		c0,0-74.3-9.6-85.2-12.6c-10.9-3,0-15.2,0-15.2s42.7-51.3,58.2-71.4C1512,2820.4,1522.1,2879.5,1538.9,2919.6z M1600.9,2643.5
		c-3.1,0-9.9-11.2-14.9-0.7c-5,10.5,0,17.4,7.4,17.4c7.4,0-41.6,93.5-62,121.4c-20.5,27.9-40.9,61.4-63.9,87.2
		c-22.9,25.8-35.4,20.2-36,32.1c0,0-80,7.7-94.9,5.6c-14.9-2.1-132.7-32.8-151.3-39.1c-18.6-6.3-104.2-33.5-132.7-44.7
		c-28.5-11.2-76.3-26.5-109.8-62.1c-33.5-35.6-138.3-91.4-138.3-102.6s72.2-113.4,81.9-126.3c0,0,13-19.5,21.7-24.4
		c8.7-4.9,42.8,16.7,55.8,24.4c13,7.7,51.5,28.6,71.9,34.2c20.5,5.6,30.4,4.2,27.3,26.5c-3.1,22.3-17.4,71.9-10.5,81.7
		c0,0-5.6,20.2,1.9,25.1c7.4,4.9,6.7-6.3,9.2,7.7c2.5,14,22.4,46.1,41.6,53c19.2,7,49.8,0,99.2-48.2c49.4-48.1,70.7-52.3,85-51.6
		c14.3,0.7,37.2,16.7,88.7-21.6c51.5-38.4,119.1-71.9,130.9-78.9c11.8-7,16.7-15.4,27.9-16.1c11.2-0.7,27.9,7,32.3,14.7
		c4.3,7.7,35.4,73.3,35.4,73.3S1604,2643.5,1600.9,2643.5z M1574.4,2525.8c0,0,48.1-9.3,52.8-10.5c4.7-1.2,10.4-16,20.8-8.6
		c10.4,7.4,4.7,4.2,0,26.5c-4.7,22.3-25.5,65.8-29.3,66.9C1615,2601.1,1572.5,2548.1,1574.4,2525.8z M1614.1,2637.2
		c-0.1-11.7,5.6-20.5,13.1-19.1c0,0,39.6,7.4,46.2,7.4S1614.2,2648.9,1614.1,2637.2z M1736.7,2587.3c-15.1,4.2-21.7-3.2-34,9.6
		c-12.3,12.7,8.5,15.9-29.3,14.9c-37.7-1.1-46.2-7.4-46.2-7.4c9.4-23.4,34.9-73.3,42.5-75.4c7.5-2.1,5.7-28.7,21.7,0
		C1707.5,2557.6,1751.8,2583.1,1736.7,2587.3z M1699.9,2487.5c5.7,0,17.9-7.4,23.6-23.6c5.7-16.2,24.1-58.7,21.7-70.6
		c-2.4-11.9-17.9-54.4-22.6-63.9c-2.5-5.1-0.7-18.9,1.5-30.8c-1.9-9.8-1.3-16.9,4.2-19.1c0,0-2.3,8.8-4.2,19.1
		c3.7,18.7,16.6,47.4,22.1,71.1c8.5,36.1-9.4,80.7-11.3,94.2c-1.9,13.5-20.8,38.5-27.4,38.6c-6.6,0.1-31.1,6.3-45.3,4.2
		c-14.2-2.1-10.9-12.6-8.3-22.8c5.8-22.8,10.2-7,24.3-8C1692.4,2474.8,1694.2,2487.5,1699.9,2487.5z M1616.3,2275.1
		c23.2,15.5,64.9,100.2,66.8,124.1c1.9,24,4.6,64.7-21.3,64.7c-26,0-38.9-9.4-67.7-60.5c-28.7-51.1-67.2-32.3-67.2-32.3
		s15.7-110.3,49.6-166.3C1576.4,2204.7,1593.1,2259.6,1616.3,2275.1z M1524.4,2296.9c-9.1,32.6-22.9,96,4.6,137.1
		c27.4,41.1,22.9,58.3,22.9,58.3s-42.7-36-60.9-51.4c-18.3-15.4-44.2-41.1-48.7-132c-4.6-90.9-15.7-65.6,0-111.4
		c6.8-20,53.3,1.5,89.9-20.7c36.6-22.2,57.9-35.9,57.9-35.9S1533.5,2264.3,1524.4,2296.9z M1539.6,2156.3
		c-88.4,37.7-112.7,22.3-184.3-37.7c-71.6-60-71.6-68.6-112.7-84c-41.1-15.4-73.1-183.4-73.1-183.4s62.5,80.6,85.3,87.4
		c22.9,6.9,50.3,41.1,76.2,56.6c25.9,15.4,44.2,48,167.6,46.3c123.4-1.7,51.8,32.6,153.9,24
		C1652.4,2065.5,1628,2118.6,1539.6,2156.3z M1669.1,2046.6c-5.6,8.3-32.4-8.3-63.6-9.4c-31.2-1-52.3-9.4-137.6-17.7
		s-111.3-27.1-145.6-53.2c-34.3-26.1-48.2-43.8-58.4-44.9c-10.2-1-79.7-80.3-79.7-80.3c-23.3-26-28.7-37.6-33.4-51.1
		c-4.4-13,13.3-28,31.1-55.8c-6.6,8.5-12.8,14.6-18.2,18.1c-18.9,12.1-8.1,8.6-28.1,0c-20-8.6-12.3-12.1-26.1-32.8
		c-13.8-20.7,21.2-27.6,10.6-43.2s-65.8-50.1-70.4-74.3c-3.2-17,22.7-43.2,70.4-38.9c47.8,4.3,46.2,3.4,83.1-0.5
		c36.8-3.8,42.8-2.1,66,0.5s-5.3,2-32.2,67.6c-13.8,33.7-27.8,61.7-40.7,82.5c18.2-23.6,40.7-45.5,48.2-64
		c9.3-23,29.7-67.8,39.9-79.3c10.2-11.5,68.6-6.3,143.7,0c75.1,6.3,106.6,43.8,139.1,60.6c32.4,16.8,81.6,12.4,106.6-4.3
		c25-16.7,31.5-1,39.9-2.1c8.3-1,20.6-3.1,20.6-3.1s6.3-9.4-5.8,16.7c-12.1,26.1-7.4,19.8,2.8,60.5c10.2,40.7-8.3,129.4-14.8,211.8
		C1709.9,1992.3,1674.7,2038.2,1669.1,2046.6z"/>
	<path class="st0" d="M1184.2,1730.5c-0.8,1.2-1.5,2.4-2.3,3.6c4.6-5.9,9.4-12.9,14.4-21C1191.9,1718.8,1187.8,1724.6,1184.2,1730.5
		z"/>
	<path class="st0" d="M472,159.5l1.5,5.4c1.2,4,2.2,8.1,3.6,12c1.4,3.9,3,7.7,5.1,11.3c0.6,1.1,1.3,2.2,2.1,3.2
		c0.8-2.8,1.6-5.6,2.7-8.3l1-2.6l0.5-1.3l0.6-1.3l2.3-5c3.3-6.6,7.2-12.8,11.9-18.5c0.7-0.9,1.4-1.8,2.2-2.6
		c-4.6-9-11.5-16.7-20.1-21.7l-2.2-1.2l-2.2-1c-0.7-0.4-1.5-0.6-2.3-0.9l-1.2-0.4c-0.4-0.1-0.8-0.2-1.2-0.3
		c-0.8-0.2-1.6-0.5-2.4-0.6c-0.8-0.1-1.6-0.3-2.4-0.3c-0.8,0-1.6-0.1-2.4,0l-1.2,0.1l-1.1,0.1c0.7,6.6,1.8,13.3,2.9,19.9
		C470.4,150.1,471.3,154.7,472,159.5z"/>
	<path class="st0" d="M166.7,455.5c-1-0.1-2-0.3-3-0.4c-1-0.2-2-0.4-2.9-0.7c-3.9-1.2-7.5-3-10.8-5.5c0,0-0.1-0.1-0.1-0.1
		c-1.5,1.1-2.9,2.3-4.2,3.5c-1.8,1.7-3.5,3.5-5.1,5.4c-1.6,1.9-3.1,3.9-4.5,5.9c-1.4,2-2.7,4.2-3.9,6.3c-4.8,8.7-8.1,18.1-10.3,27.7
		c-2.1,9.7-3.1,19.5-3.3,29.4c-0.2,9.9,0.2,19.8,1.6,29.6c0.7,4.9,1.7,9.7,3.2,14.3c1.5,4.6,3.4,9.1,6.2,13c1.4,1.9,3,3.6,4.8,5
		c1.8,1.3,3.9,2.3,6.1,2.7c2.2,0.4,4.4,0.2,6.6-0.3c2.2-0.6,4.3-1.6,6.3-2.8c2-1.2,3.9-2.7,5.6-4.3c1.8-1.6,3.4-3.4,4.9-5.2
		c3-3.7,5.4-7.9,7.2-12.3c1.7-4.4,2.8-9.1,3.3-13.9c0.2-2.4,0.3-4.8,0.3-7.2c0-1.2-0.1-2.4-0.2-3.6c-0.1-1.2-0.3-2.4-0.5-3.5l0-0.1
		l0-0.1c-0.6-4.7-0.9-9.3-1.1-13.9c-0.2-4.6-0.3-9.3-0.2-13.9c0.2-9.3,0.9-18.6,2.4-27.8c1.5-9.2,3.8-18.3,7.3-27.1l0.9-2.1
		c-3.4,1.3-7,2-10.6,2.2C170.7,455.8,168.7,455.8,166.7,455.5z"/>
	<path class="st0" d="M265.3,343.9c0.2,0,0.4,0,0.6,0c-1.2-3.4-2.4-6.8-3.8-10.1c0.6,3.2,0.9,6.6,0.9,10.2
		C263.8,343.9,264.5,343.9,265.3,343.9z"/>
</g>
</svg>
